<!-- Generated by IcoMoon.io -->
<svg version="1.1" xmlns="http://www.w3.org/2000/svg" width="120" height="32" viewBox="0 0 120 32">
<title>logo</title>
<path d="M10.691 26.806c0.097-0.055 0.161-0.158 0.161-0.275 0-0.071-0.023-0.136-0.062-0.189l0.001 0.001c-0.366-0.661-0.783-1.231-1.263-1.742l0.004 0.005c-0.479-0.512-1.010-0.964-1.587-1.353l-0.033-0.021c-0.938-0.62-2.035-1.091-3.213-1.345l-0.063-0.011q-0.562-0.099-1.042-0.166c-0.316-0.045-0.623-0.077-0.907-0.099v-0.066c0.352-0.265 0.731-0.573 1.142-0.927s0.803-0.722 1.191-1.108 0.758-0.767 1.124-1.141 0.691-0.728 0.975-1.059q0.927-1.025 1.837-2.085t1.706-2.085q0.792-1.025 1.453-1.952t1.128-1.687c0.332-0.472 0.616-1.013 0.824-1.59l0.015-0.048c0.046-0.135 0.073-0.291 0.073-0.454 0-0.091-0.008-0.18-0.024-0.266l0.001 0.009-0.627 0.199c-0.005 0.138-0.034 0.268-0.084 0.388l0.003-0.007c-0.054 0.144-0.144 0.342-0.266 0.596s-0.302 0.579-0.546 0.976q-0.46 0.761-1.124 1.67c-0.442 0.607-0.925 1.241-1.458 1.903s-1.092 1.34-1.688 2.035-1.187 1.373-1.783 2.035q-1.13 1.224-2.022 2.085t-1.552 1.423q0.162-0.727 0.379-1.489c0.144-0.507 0.302-1.047 0.478-1.621q0.596-2.216 1.191-4.301t1.061-3.706q0.46-1.621 0.745-2.614c0.185-0.662 0.28-1.003 0.28-1.026 0.026-0.040 0.042-0.088 0.042-0.141 0-0.142-0.115-0.257-0.257-0.257-0.005 0-0.011 0-0.016 0h0.001c-0.034-0.015-0.074-0.024-0.116-0.024-0.136 0-0.25 0.094-0.28 0.221v0.002c0 0.022-0.095 0.364-0.28 1.026s-0.442 1.534-0.763 2.614-0.672 2.316-1.061 3.706-0.776 2.824-1.173 4.301l-1.092 4.003c-0.144 0.112-0.307 0.217-0.478 0.307l-0.018 0.009c-0.153 0.078-0.284 0.138-0.397 0.181-0.264 0.022-0.501 0.057-0.734 0.106l0.039-0.007c-0.127 0.038-0.218 0.154-0.218 0.291 0 0.038 0.007 0.074 0.020 0.108l-0.001-0.002c0.016 0.126 0.111 0.226 0.233 0.248h0.002c0.108 0.011 0.185 0.017 0.23 0.017l0.366-0.066c0.003 0 0.007 0 0.011 0 0.032 0 0.062-0.006 0.090-0.018l-0.002 0.001c0.025-0.011 0.054-0.017 0.085-0.017 0.005 0 0.010 0 0.015 0.001h-0.001c0.075 0 0.149-0.006 0.22-0.018l-0.008 0.001c0.074-0.011 0.158-0.017 0.245-0.017 0.001 0 0.002 0 0.004 0v0q-1.916 7.279-1.819 8.338c-0.002 0.013-0.003 0.027-0.003 0.042 0 0.161 0.131 0.292 0.292 0.292 0.014 0 0.029-0.001 0.043-0.003h-0.002c0.187-0.011 0.334-0.164 0.334-0.353 0-0.004 0-0.008 0-0.011v0.001c0.008-0.213 0.025-0.413 0.053-0.61l-0.004 0.031c0.032-0.298 0.113-0.761 0.248-1.39s0.316-1.456 0.56-2.482 0.564-2.31 0.961-3.855c0.307 0.022 0.641 0.050 0.993 0.083 0.413 0.040 0.785 0.104 1.148 0.192l-0.056-0.011c1.144 0.245 2.153 0.693 3.037 1.309l-0.027-0.018c1.098 0.729 1.989 1.684 2.623 2.803l0.021 0.041c0.057 0.1 0.163 0.165 0.285 0.165 0.005 0 0.009 0 0.014 0h-0.001c0.004 0 0.009 0 0.013 0 0.056 0 0.109-0.012 0.156-0.034l-0.002 0.001zM18.697 20.453c0.113-0.331 0.221-0.65 0.334-0.959 0.063-0.242 0.131-0.463 0.199-0.662s0.117-0.386 0.162-0.562c0.049-0.158 0.079-0.34 0.081-0.528v-0.001c0.003-0.018 0.005-0.038 0.005-0.059 0-0.177-0.119-0.325-0.282-0.37l-0.003-0.001c-0.048-0.019-0.105-0.031-0.163-0.031-0.132 0-0.25 0.056-0.333 0.146v0c-0.176 0.168-0.338 0.346-0.488 0.535l-0.008 0.011-1.056 1.489q-0.366 0.563-0.731 1.092c-0.244 0.353-0.483 0.684-0.727 0.993-0.211 0.295-0.451 0.551-0.72 0.772l-0.007 0.006c-0.068 0.046-0.145 0.085-0.228 0.114l-0.007 0.002c-0.006 0-0.013 0-0.020 0-0.361 0-0.662-0.253-0.738-0.591l-0.001-0.005c-0.045-0.199-0.071-0.428-0.071-0.663 0-0.128 0.008-0.254 0.022-0.378l-0.001 0.015c0.043-0.487 0.142-0.937 0.292-1.363l-0.012 0.039c0.11-0.417 0.252-0.78 0.429-1.122l-0.014 0.030c0.082-0.178 0.187-0.331 0.312-0.464l-0.001 0.001c0.143-0.030 0.249-0.155 0.249-0.304 0-0.033-0.005-0.065-0.015-0.095l0.001 0.002c-0.009-0.157-0.139-0.282-0.298-0.282-0.035 0-0.069 0.006-0.101 0.017l0.002-0.001c-0.278 0.118-0.499 0.327-0.629 0.589l-0.003 0.007-0.46 1.059c-0.107 0.299-0.21 0.671-0.288 1.051l-0.010 0.057c-0.076 0.32-0.119 0.688-0.119 1.066 0 0.155 0.007 0.308 0.022 0.459l-0.001-0.019c0.009 0.297 0.081 0.575 0.204 0.824l-0.005-0.012c0.093 0.191 0.221 0.351 0.377 0.478l0.003 0.002c0.125 0.1 0.275 0.175 0.439 0.214l0.008 0.002c0.128 0.030 0.276 0.048 0.428 0.050h0.001c0.375 0 0.79-0.287 1.241-0.86s1.033-1.378 1.738-2.415c0.334-0.507 0.65-0.97 0.961-1.39l-0.266 0.855c-0.217 0.597-0.44 1.361-0.618 2.142l-0.027 0.141c-0.048 0.141-0.076 0.304-0.076 0.473 0 0.317 0.097 0.612 0.264 0.856l-0.003-0.005c0.146 0.126 0.337 0.202 0.547 0.202 0.088 0 0.173-0.014 0.253-0.039l-0.006 0.002q1.32-0.363 3.173-2.25c0.418-0.392 0.807-0.796 1.174-1.221l0.017-0.020c0.163-0.174 0.316-0.363 0.454-0.563l0.011-0.016c0.066-0.052 0.109-0.131 0.109-0.221 0-0.103-0.056-0.193-0.139-0.241l-0.001-0.001c-0.053-0.053-0.125-0.086-0.206-0.086-0.015 0-0.030 0.001-0.044 0.003h0.002c-0.089 0.004-0.167 0.049-0.216 0.115l-0.001 0.001c-0.149 0.216-0.302 0.405-0.467 0.582l0.003-0.003c-0.374 0.433-0.751 0.826-1.147 1.2l-0.008 0.007c-0.482 0.514-1.008 0.976-1.575 1.384l-0.032 0.022c-0.374 0.277-0.806 0.507-1.271 0.667l-0.034 0.010c-0.014 0.006-0.030 0.009-0.046 0.009-0.063 0-0.114-0.047-0.121-0.108v-0.001c-0.020-0.086-0.032-0.184-0.032-0.285 0-0.011 0-0.022 0-0.032v0.002c0-0.004 0-0.008 0-0.012 0-0.125 0.018-0.246 0.052-0.36l-0.002 0.009c0.023-0.072 0.041-0.156 0.049-0.243v-0.005c0.083-0.385 0.173-0.705 0.28-1.017l-0.018 0.062zM24.623 17.724c0.281-0.26 0.531-0.548 0.747-0.86l0.011-0.017c0.351-0.448 0.705-0.955 1.032-1.482l0.043-0.074q0.582-0.926 1.191-2.035c0.411-0.739 0.817-1.522 1.228-2.349s0.799-1.659 1.173-2.498q0.596-1.356 1.056-2.531c0.235-0.553 0.484-1.262 0.695-1.988l0.036-0.146c0.438-1.5 0.528-2.558 0.262-3.176-0.146-0.334-0.474-0.562-0.855-0.562-0.001 0-0.002 0-0.003 0v0c-0.527 0.023-0.99 0.282-1.288 0.673l-0.003 0.004c-0.55 0.645-1.025 1.38-1.396 2.174l-0.025 0.060c-0.465 0.882-0.921 1.886-1.376 3.011s-0.88 2.302-1.291 3.524-0.799 2.454-1.173 3.689-0.704 2.392-0.993 3.475c-0.307 1.257-0.591 2.443-0.844 3.557s-0.447 2.113-0.578 2.994c-0.113 0.75-0.181 1.354-0.217 1.805-0.017 0.183-0.027 0.395-0.027 0.61 0 0.152 0.005 0.303 0.015 0.452l-0.001-0.020c0.006 0.186 0.042 0.361 0.103 0.524l-0.004-0.011c0.031 0.083 0.075 0.155 0.131 0.215v0c0.058 0.081 0.152 0.133 0.257 0.133 0.003 0 0.006 0 0.009 0h0.063c0.132-0.018 0.233-0.13 0.235-0.265v0c0.153-0.551 0.289-1.047 0.411-1.489s0.271-0.931 0.447-1.473 0.388-1.097 0.632-1.67c0.361-0.848 0.741-1.565 1.174-2.246l-0.037 0.062c0.303-0.476 0.642-0.888 1.026-1.255l0.003-0.002c0.249-0.242 0.553-0.429 0.891-0.541l0.017-0.005c0.183-0.056 0.393-0.088 0.611-0.088 0.054 0 0.107 0.002 0.159 0.006h-0.007c0.416 0.033 0.764 0.293 0.922 0.655l0.003 0.007c0.036 0.139 0.057 0.298 0.057 0.462 0 0.135-0.014 0.267-0.041 0.395l0.002-0.012c-0.079 0.429-0.211 0.811-0.39 1.166l0.011-0.024c-0.223 0.46-0.444 0.844-0.687 1.212l0.024-0.038c-0.291 0.446-0.575 0.829-0.878 1.194l0.017-0.020c-0.325 0.422-0.701 0.783-1.125 1.081l-0.016 0.011c-0.151 0.121-0.337 0.204-0.54 0.231l-0.006 0.001c-0.092-0.012-0.163-0.090-0.163-0.184 0-0.005 0-0.010 0.001-0.014v0.001c-0.012-0.082-0.019-0.176-0.019-0.271 0-0.198 0.030-0.39 0.086-0.569l-0.004 0.014c0.126-0.463 0.274-0.858 0.453-1.237l-0.019 0.046c0.178-0.407 0.371-0.755 0.593-1.082l-0.015 0.023c0.19-0.265 0.302-0.419 0.348-0.463 0.122-0.036 0.21-0.147 0.21-0.279 0-0.056-0.016-0.108-0.044-0.153l0.001 0.001c-0.045-0.114-0.155-0.193-0.283-0.193-0.069 0-0.132 0.023-0.183 0.061l0.001-0.001c-0.142 0.097-0.262 0.212-0.363 0.344l-0.003 0.004c-0.124 0.155-0.243 0.328-0.35 0.509l-0.011 0.021q-0.169 0.282-0.298 0.529c-0.090 0.166-0.144 0.271-0.167 0.316q-0.196 0.464-0.447 1.173c-0.109 0.276-0.172 0.596-0.172 0.93 0 0.121 0.008 0.24 0.024 0.357l-0.002-0.014c0.008 0.246 0.122 0.464 0.297 0.611l0.001 0.001c0.113 0.079 0.246 0.142 0.389 0.179l0.009 0.002c0.053 0.012 0.113 0.018 0.176 0.018 0.147 0 0.286-0.038 0.406-0.104l-0.004 0.002c0.241-0.117 0.448-0.249 0.638-0.402l-0.006 0.005c0.222-0.178 0.421-0.357 0.609-0.546v0c0.199-0.199 0.366-0.375 0.496-0.529q0.366-0.43 0.812-1.059c0.274-0.381 0.533-0.815 0.753-1.271l0.023-0.053c0.197-0.395 0.357-0.854 0.458-1.335l0.007-0.038c0.034-0.15 0.054-0.322 0.054-0.498 0-0.266-0.045-0.521-0.127-0.759l0.005 0.016c-0.082-0.343-0.299-0.624-0.59-0.791l-0.006-0.003c-0.238-0.136-0.515-0.24-0.809-0.295l-0.017-0.003q-1.455-0.199-2.681 1.257c-0.75 0.919-1.374 1.98-1.823 3.13l-0.028 0.080c-0.199 0.463-0.384 0.921-0.546 1.373s-0.307 0.877-0.415 1.274l0.167-1.092q0.162-1.092 0.46-2.465t0.663-2.895c0.033 0.006 0.072 0.010 0.111 0.010 0.177 0 0.338-0.072 0.453-0.189v0zM24.357 16.781q0.426-1.621 0.957-3.457c0.357-1.224 0.74-2.437 1.16-3.639s0.848-2.366 1.291-3.491c0.463-1.196 0.919-2.176 1.43-3.124l-0.072 0.145c0.363-0.715 0.747-1.328 1.179-1.902l-0.023 0.033q0.528-0.677 0.894-0.677h0.032c0.070 0.007 0.133 0.031 0.187 0.067l-0.002-0.001c0.107 0.112 0.175 0.263 0.18 0.429v0.001c0.113 0.684-0.117 1.836-0.677 3.457-0.817 2.262-1.637 4.123-2.563 5.921l0.131-0.28q-0.663 1.357-1.358 2.597t-1.322 2.233c-0.351 0.579-0.683 1.065-1.038 1.532l0.031-0.043q-0.352 0.431-0.514 0.596zM39.773 19.097l0.068-0.066c0-0.002-0.001-0.003-0.001-0.005 0-0.015 0.013-0.028 0.028-0.028 0.001 0 0.003 0 0.004 0v0c0.066-0.052 0.109-0.131 0.109-0.221 0-0.103-0.056-0.193-0.139-0.241l-0.001-0.001c-0.053-0.053-0.125-0.086-0.206-0.086-0.015 0-0.030 0.001-0.044 0.003h0.002c-0.089 0.004-0.167 0.049-0.216 0.115l-0.001 0.001-0.032 0.033c-0.020 0.018-0.037 0.040-0.049 0.065l-0.001 0.001c-0.014 0.025-0.031 0.047-0.050 0.066v0c-0.246 0.127-0.551 0.261-0.865 0.378l-0.060 0.020c-0.519 0.2-1.123 0.352-1.751 0.427l-0.036 0.004c0.093-0.246 0.179-0.546 0.241-0.854l0.007-0.040c0.050-0.248 0.080-0.534 0.081-0.826v-0.001q0-1.753-1.453-1.82c-0.026-0.001-0.057-0.002-0.089-0.002-0.364 0-0.709 0.080-1.019 0.223l0.015-0.006c-0.265 0.128-0.493 0.277-0.7 0.451l0.005-0.004c-0.421 0.372-0.703 0.893-0.762 1.48l-0.001 0.010c0.001 0.135 0.012 0.267 0.034 0.395l-0.002-0.014c0.023 0.144 0.058 0.272 0.104 0.394l-0.005-0.014c-0.176 0.133-0.332 0.268-0.479 0.414v0c-0.135 0.132-0.242 0.292-0.313 0.471l-0.003 0.009c-0.121 0.218-0.192 0.478-0.192 0.755 0 0.155 0.022 0.305 0.064 0.447l-0.003-0.011c0.103 0.369 0.299 0.683 0.563 0.925l0.001 0.001c0.22 0.22 0.522 0.358 0.856 0.364h0.001q1.361 0 2.451-1.588l0.266-0.463c0.199-0.022 0.492-0.077 0.889-0.166s0.794-0.187 1.191-0.298c0.422-0.114 0.769-0.233 1.106-0.37l-0.064 0.023c0.202-0.033 0.367-0.165 0.445-0.344l0.001-0.004zM35.292 19.594c-0.183-0.001-0.36-0.025-0.529-0.070l0.015 0.003c-0.444-0.047-0.828-0.268-1.090-0.593l-0.002-0.003v-0.066c-0.104-0.161-0.167-0.357-0.167-0.568 0-0.033 0.002-0.065 0.004-0.097v0.004c0.043-0.411 0.238-0.77 0.526-1.024l0.002-0.001c0.153-0.124 0.327-0.234 0.512-0.324l0.016-0.007c0.225-0.105 0.489-0.167 0.768-0.167 0.022 0 0.044 0 0.066 0.001h-0.003c0.528 0 0.794 0.386 0.794 1.158-0.009 0.638-0.155 1.24-0.408 1.78l0.011-0.027h-0.514zM35.373 20.355c-0.253 0.456-0.619 0.822-1.060 1.068l-0.014 0.007c-0.237 0.116-0.513 0.193-0.805 0.215h-0.008c-0.189-0.003-0.359-0.085-0.478-0.215v0c-0.15-0.157-0.26-0.352-0.314-0.57l-0.002-0.009c-0.021-0.083-0.033-0.178-0.033-0.276 0-0.461 0.269-0.858 0.658-1.045l0.007-0.003c0.161 0.16 0.345 0.298 0.547 0.407l0.013 0.006c0.23 0.123 0.498 0.211 0.783 0.247l0.012 0.001c0.102 0.021 0.227 0.038 0.354 0.049l0.012 0.001c0.131 0.011 0.266 0.017 0.397 0.017zM58.335 31.935c0.084-0.058 0.139-0.154 0.139-0.263 0-0.076-0.027-0.146-0.071-0.201v0.001q-1.455-2.15-1.422-7.048c0.023-1.607 0.131-3.161 0.319-4.691l-0.021 0.208q0.264-2.299 0.528-4.417 0.426-3.176 0.578-5.325t-0.51-2.912c-0.18-0.223-0.454-0.364-0.761-0.364-0.012 0-0.023 0-0.035 0.001h0.002q-1.293 0-3.146 3.077-0.691 1.159-1.471 2.763t-1.638 3.656q-0.663 1.655-1.273 3.243c-0.411 1.059-0.767 2.018-1.079 2.878q0.169-1.125 0.316-2.415t0.316-2.647q0.196-1.886 0.311-3.358t0.149-2.597c0.023-0.441 0.036-0.838 0.036-1.191 0-0.017 0-0.038 0-0.058 0-0.307-0.025-0.607-0.072-0.9l0.004 0.032q-0.102-0.959-0.528-1.158c-0.046-0.037-0.106-0.059-0.17-0.059-0.122 0-0.226 0.079-0.262 0.189l-0.001 0.002c-0.018 0.041-0.029 0.088-0.029 0.138 0 0.123 0.065 0.231 0.163 0.291l0.001 0.001c0.038 0.057 0.066 0.123 0.081 0.195l0.001 0.004c0.047 0.192 0.089 0.428 0.115 0.669l0.002 0.026c0.022 0.312 0.034 0.676 0.034 1.042s-0.013 0.731-0.037 1.091l0.003-0.049q-0.068 1.092-0.167 2.564t-0.329 3.292c-0.113 1.038-0.226 2.041-0.347 3.011s-0.239 1.836-0.347 2.598-0.199 1.373-0.266 1.836-0.099 0.706-0.099 0.728c-0.008 0.025-0.013 0.055-0.013 0.085 0 0.154 0.125 0.278 0.278 0.278 0 0 0.001 0 0.001 0v0c0.029 0.010 0.062 0.015 0.096 0.015 0.148 0 0.272-0.105 0.301-0.245v-0.002q0.528-1.621 0.993-2.928t1.092-2.961q0.632-1.654 1.354-3.375c1.020-2.523 2.042-4.612 3.188-6.622l-0.141 0.269c0.326-0.56 0.637-1.030 0.973-1.481l-0.030 0.042c0.225-0.309 0.47-0.58 0.74-0.823l0.005-0.004c0.159-0.144 0.338-0.271 0.532-0.374l0.014-0.007c0.101-0.055 0.219-0.090 0.345-0.099h0.003c0.007 0 0.014-0.001 0.022-0.001 0.111 0 0.211 0.052 0.276 0.132l0.001 0.001c0.284 0.309 0.397 1.191 0.329 2.647q-0.068 1.059-0.217 2.349c-0.099 0.86-0.212 1.765-0.347 2.713q-0.298 2.151-0.546 4.5t-0.28 4.549c-0.003 0.135-0.005 0.295-0.005 0.455 0 1.301 0.117 2.574 0.34 3.811l-0.019-0.13c0.196 1.23 0.632 2.329 1.261 3.291l-0.020-0.032c0.056 0.080 0.149 0.132 0.253 0.132 0.003 0 0.006 0 0.009 0v0c0.006 0.001 0.013 0.001 0.021 0.001 0.068 0 0.131-0.025 0.178-0.067v0zM68.129 19.577c0.163-0.174 0.316-0.363 0.454-0.563l0.011-0.016c0.066-0.052 0.109-0.131 0.109-0.221 0-0.103-0.056-0.193-0.139-0.241l-0.001-0.001c-0.053-0.053-0.125-0.086-0.206-0.086-0.015 0-0.030 0.001-0.044 0.003h0.002c-0.089 0.004-0.167 0.049-0.216 0.115l-0.001 0.001c-0.149 0.216-0.302 0.405-0.467 0.582l0.003-0.003c-0.374 0.433-0.751 0.826-1.147 1.2l-0.008 0.007c-0.557 0.562-1.182 1.054-1.862 1.465l-0.043 0.024c-0.642 0.383-1.398 0.652-2.204 0.758l-0.030 0.003c-0.076 0.019-0.162 0.030-0.252 0.030-0.303 0-0.577-0.125-0.773-0.327v0c-0.078-0.16-0.126-0.347-0.131-0.544v-0.002c0-0.007 0-0.015 0-0.023 0-0.402 0.073-0.786 0.206-1.141l-0.007 0.022c0.136-0.46 0.282-0.844 0.452-1.215l-0.023 0.057c0.176-0.397 0.343-0.75 0.496-1.059 0.086-0.199 0.167-0.375 0.23-0.529s0.122-0.287 0.167-0.397c0.012-0.033 0.019-0.071 0.019-0.111 0-0.153-0.105-0.282-0.247-0.319h-0.002c-0.032-0.013-0.070-0.021-0.109-0.021-0.147 0-0.269 0.109-0.288 0.251v0.002l-0.397 0.86c-0.158 0.353-0.325 0.739-0.514 1.158-0.163 0.349-0.315 0.767-0.433 1.2l-0.013 0.058c-0.1 0.353-0.164 0.761-0.18 1.181v0.010c-0.002 0.031-0.003 0.066-0.003 0.102 0 0.318 0.094 0.615 0.255 0.863l-0.004-0.006c0.277 0.348 0.701 0.57 1.176 0.57 0.052 0 0.102-0.003 0.153-0.008l-0.006 0.001h0.298c0.936-0.044 1.798-0.328 2.536-0.79l-0.022 0.013c0.762-0.495 1.423-1.046 2.013-1.665l0.004-0.004c0.418-0.392 0.807-0.797 1.174-1.222l0.017-0.020zM64.004 15.176c0.178-0.171 0.289-0.412 0.289-0.678s-0.111-0.507-0.288-0.678v0c-0.171-0.174-0.409-0.281-0.672-0.281-0.005 0-0.010 0-0.015 0h0.001c-0.517 0.016-0.931 0.44-0.931 0.959s0.413 0.943 0.929 0.959h0.002c0.004 0 0.009 0 0.014 0 0.263 0 0.501-0.108 0.671-0.282v0zM63.597 14.499c0.002 0.011 0.003 0.024 0.003 0.037 0 0.145-0.118 0.263-0.263 0.263-0.013 0-0.026-0.001-0.039-0.003h0.001c-0.151-0.017-0.267-0.144-0.267-0.298s0.116-0.281 0.265-0.298h0.001c0.011-0.002 0.024-0.003 0.037-0.003 0.145 0 0.263 0.118 0.263 0.263 0 0.013-0.001 0.026-0.003 0.039v-0.001zM79.777 19.578c0.16-0.174 0.313-0.363 0.453-0.561l0.012-0.018c0.065-0.052 0.107-0.131 0.107-0.22 0-0.104-0.057-0.195-0.142-0.243l-0.001-0.001c-0.052-0.053-0.124-0.086-0.204-0.086-0.016 0-0.031 0.001-0.046 0.004h0.002c-0.088 0.003-0.164 0.048-0.212 0.115l-0.001 0.001c-0.152 0.216-0.305 0.405-0.469 0.583l0.004-0.004c-0.374 0.433-0.752 0.827-1.151 1.2l-0.009 0.008c-0.513 0.57-1.070 1.080-1.672 1.534l-0.030 0.021c-0.4 0.303-0.87 0.542-1.378 0.688l-0.030 0.007c-0.233 0.070-0.5 0.111-0.778 0.111-0.14 0-0.277-0.010-0.411-0.030l0.015 0.002c-0.448-0.062-0.85-0.16-1.236-0.295l0.044 0.013c-0.412-0.142-0.767-0.31-1.099-0.511l0.025 0.014c-0.293-0.166-0.544-0.364-0.761-0.594l-0.001-0.002c-0.13-0.132-0.223-0.301-0.261-0.49l-0.001-0.006c0.708-0.015 1.362-0.229 1.914-0.588l-0.014 0.009c0.454-0.306 0.85-0.638 1.208-1.007l0.002-0.002c0.286-0.345 0.535-0.736 0.731-1.158l0.014-0.033c0.146-0.279 0.245-0.604 0.279-0.949l0.001-0.011c0.001-0.012 0.002-0.025 0.002-0.039 0-0.114-0.045-0.217-0.119-0.292v0c-0.065-0.061-0.152-0.098-0.248-0.099v0q-1.32 0-4.035 3.243c-0.397 0.486-0.763 0.954-1.092 1.406s-0.609 0.833-0.826 1.141c-0.006-0.119-0.009-0.259-0.009-0.399 0-0.549 0.051-1.086 0.148-1.607l-0.008 0.054c0.086-0.507 0.194-1.059 0.316-1.654s0.266-1.235 0.447-1.919c0.195-0.116 0.363-0.253 0.508-0.412l0.001-0.002c0.289-0.299 0.565-0.617 0.824-0.95l0.020-0.026c0.334-0.463 0.695-0.998 1.092-1.605s0.799-1.257 1.21-1.952 0.808-1.417 1.205-2.166 0.772-1.489 1.128-2.217c0.397-0.794 0.736-1.544 1.024-2.25s0.519-1.345 0.695-1.919q0.663-2.051 0.262-2.843c-0.133-0.332-0.453-0.563-0.826-0.563-0.011 0-0.022 0-0.033 0.001h0.002q-0.697-0.033-1.557 0.959c-0.587 0.679-1.095 1.452-1.494 2.287l-0.027 0.062q-0.528 1.026-1.092 2.349t-1.106 2.845q-0.548 1.522-1.079 3.176t-0.957 3.34q-0.433 1.556-0.731 2.912t-0.46 2.448c-0.090 0.552-0.144 1.009-0.167 1.373-0.011 0.134-0.017 0.289-0.017 0.447s0.006 0.313 0.018 0.467l-0.001-0.020c0.011 0.187 0.047 0.362 0.103 0.526l-0.004-0.014c0.041 0.103 0.085 0.19 0.135 0.273l-0.005-0.008c0.066 0.076 0.16 0.125 0.265 0.132h0.001c0.010 0.001 0.021 0.002 0.032 0.002 0.099 0 0.186-0.053 0.233-0.133l0.001-0.001c0.018-0.022 0.176-0.237 0.46-0.645s0.65-0.899 1.092-1.473c0.074 0.179 0.174 0.333 0.299 0.464l-0.001-0.001c0.62 0.574 1.393 0.991 2.251 1.185l0.033 0.006c0.531 0.168 1.142 0.265 1.776 0.265 0.033 0 0.065 0 0.097-0.001h-0.005c0.548-0.018 1.064-0.138 1.535-0.341l-0.027 0.011c0.502-0.221 0.932-0.504 1.308-0.847l-0.004 0.003c0.411-0.364 0.844-0.778 1.309-1.241 0.416-0.393 0.806-0.799 1.174-1.223l0.018-0.021zM70.647 11.902q0.528-1.638 1.074-3.143t1.092-2.813c0.361-0.871 0.722-1.649 1.074-2.333 0.327-0.626 0.634-1.139 0.966-1.636l-0.040 0.064c0.225-0.335 0.453-0.626 0.701-0.9l-0.006 0.007c0.14-0.165 0.312-0.298 0.505-0.393l0.009-0.004c0.092-0.042 0.199-0.071 0.312-0.082h0.004c0.077 0.002 0.15 0.020 0.215 0.051l-0.003-0.001c0.094 0.092 0.152 0.22 0.152 0.361 0 0.018-0.001 0.036-0.003 0.054v-0.002c0.007 0.088 0.011 0.191 0.011 0.295 0 0.372-0.052 0.731-0.149 1.072l0.007-0.028c-0.193 0.773-0.408 1.424-0.664 2.053l0.036-0.101q-0.433 1.109-1.061 2.465t-1.458 2.845q-0.691 1.258-1.39 2.432-0.691 1.173-1.354 2.134-0.399 0.563-0.677 0.927c-0.19 0.243-0.347 0.441-0.483 0.596 0.036-0.236 0.094-0.448 0.174-0.648l-0.007 0.020q0.426-1.656 0.961-3.294zM73.621 18.106c-0.186 0.329-0.405 0.612-0.658 0.859l-0.001 0.001c-0.512 0.562-1.193 0.963-1.962 1.121l-0.024 0.004c0.176-0.22 0.393-0.468 0.645-0.745s0.51-0.546 0.776-0.812c0.249-0.249 0.514-0.482 0.793-0.697l0.019-0.014c0.215-0.173 0.46-0.322 0.724-0.438l0.021-0.008c-0.105 0.285-0.218 0.524-0.347 0.753l0.013-0.026zM84.642 20.455c0.108-0.331 0.221-0.65 0.329-0.959 0.068-0.242 0.131-0.463 0.199-0.662s0.122-0.386 0.167-0.562c0.045-0.157 0.074-0.338 0.081-0.525v-0.005c0.003-0.017 0.004-0.036 0.004-0.056 0-0.177-0.119-0.327-0.281-0.374l-0.003-0.001c-0.048-0.019-0.105-0.031-0.163-0.031-0.132 0-0.25 0.056-0.333 0.146v0c-0.177 0.167-0.34 0.346-0.489 0.536l-0.008 0.010-1.061 1.489c-0.244 0.375-0.483 0.739-0.727 1.092s-0.487 0.684-0.727 0.993c-0.212 0.296-0.453 0.551-0.724 0.772l-0.007 0.006c-0.066 0.047-0.142 0.086-0.224 0.114l-0.006 0.002c-0.005 0-0.011 0-0.018 0-0.362 0-0.666-0.252-0.744-0.591l-0.001-0.005c-0.043-0.203-0.068-0.437-0.068-0.676 0-0.123 0.007-0.245 0.019-0.364l-0.001 0.015c0.045-0.488 0.146-0.937 0.296-1.363l-0.012 0.039c0.109-0.417 0.249-0.78 0.425-1.122l-0.014 0.031c0.081-0.179 0.187-0.332 0.316-0.463v0c0.141-0.029 0.246-0.152 0.246-0.299 0-0.035-0.006-0.069-0.017-0.1l0.001 0.002c-0.009-0.157-0.139-0.282-0.298-0.282-0.035 0-0.069 0.006-0.101 0.017l0.002-0.001c-0.277 0.118-0.496 0.327-0.624 0.589l-0.003 0.007-0.465 1.059c-0.099 0.287-0.202 0.658-0.285 1.037l-0.013 0.071c-0.074 0.326-0.117 0.701-0.117 1.085 0 0.148 0.006 0.294 0.019 0.439l-0.001-0.019c0.011 0.297 0.083 0.575 0.204 0.825l-0.005-0.012c0.096 0.19 0.225 0.35 0.381 0.478l0.003 0.002c0.124 0.102 0.275 0.177 0.44 0.214l0.007 0.001c0.128 0.030 0.276 0.048 0.428 0.050h0.001c0.375 0 0.79-0.287 1.241-0.86s1.029-1.378 1.737-2.415c0.329-0.507 0.65-0.97 0.957-1.39l-0.262 0.853c-0.221 0.604-0.443 1.368-0.62 2.149l-0.025 0.134c-0.049 0.142-0.077 0.307-0.077 0.477 0 0.316 0.096 0.609 0.261 0.852l-0.003-0.005c0.146 0.126 0.338 0.202 0.548 0.202 0.088 0 0.173-0.014 0.253-0.038l-0.006 0.002q1.32-0.363 3.177-2.25 0.722-0.695 1.191-1.241c0.16-0.174 0.311-0.363 0.449-0.562l0.011-0.017c0.067-0.051 0.111-0.131 0.111-0.221 0-0.103-0.057-0.194-0.141-0.241l-0.001-0.001c-0.053-0.053-0.125-0.086-0.206-0.086-0.015 0-0.030 0.001-0.044 0.003h0.002c-0.089 0.004-0.167 0.049-0.216 0.115l-0.001 0.001c-0.149 0.216-0.3 0.405-0.464 0.583l0.003-0.004c-0.375 0.432-0.754 0.826-1.151 1.2l-0.008 0.008c-0.481 0.514-1.005 0.976-1.57 1.385l-0.032 0.022c-0.376 0.277-0.809 0.507-1.275 0.667l-0.034 0.010c-0.014 0.006-0.030 0.009-0.046 0.009-0.063 0-0.114-0.047-0.121-0.108v-0.001c-0.020-0.086-0.032-0.184-0.032-0.285 0-0.011 0-0.022 0-0.032v0.002c0.001-0.13 0.019-0.255 0.052-0.374l-0.002 0.010c0.023-0.072 0.040-0.156 0.049-0.243v-0.005c0.085-0.386 0.176-0.705 0.285-1.017l-0.019 0.062zM89.421 23.102c-0.172 0.161-0.28 0.39-0.28 0.643 0 0.006 0 0.013 0 0.019v-0.001c0 0.53 0.429 0.959 0.959 0.959s0.959-0.429 0.959-0.959v0c0-0.005 0-0.012 0-0.018 0-0.254-0.108-0.482-0.279-0.643h-0.001c-0.178-0.165-0.417-0.265-0.68-0.265s-0.5 0.1-0.679 0.265l0.001-0.001zM89.8 23.763c0.019-0.149 0.145-0.263 0.298-0.263s0.279 0.114 0.298 0.262v0.002c0 0.165-0.133 0.298-0.298 0.298s-0.298-0.133-0.298-0.298v0zM97.066 22.423c0.755-0.478 1.41-1.008 1.998-1.604l0.001-0.001c0.418-0.392 0.807-0.796 1.174-1.221l0.017-0.020c0.163-0.174 0.316-0.363 0.454-0.563l0.011-0.016c0.066-0.051 0.108-0.131 0.108-0.22 0-0.104-0.058-0.195-0.143-0.243l-0.001-0.001c-0.052-0.053-0.124-0.086-0.204-0.086-0.016 0-0.031 0.001-0.046 0.004h0.002c-0.088 0.004-0.164 0.049-0.212 0.115l-0.001 0.001c-0.149 0.216-0.302 0.405-0.467 0.582l0.003-0.003c-0.374 0.433-0.751 0.826-1.147 1.2l-0.008 0.007c-0.513 0.536-1.077 1.016-1.688 1.433l-0.036 0.023c-0.477 0.351-1.070 0.571-1.714 0.596h-0.006c-0.073 0.008-0.158 0.013-0.244 0.013-0.511 0-0.982-0.166-1.364-0.448l0.006 0.004c-0.249-0.226-0.404-0.551-0.404-0.913 0-0.046 0.002-0.091 0.007-0.135v0.005c0.059-0.504 0.23-0.958 0.486-1.352l-0.007 0.012c0.3-0.503 0.656-0.934 1.069-1.304l0.005-0.005c0.4-0.363 0.858-0.673 1.356-0.912l0.034-0.015c0.291-0.155 0.637-0.247 1.004-0.247 0.13 0 0.257 0.011 0.381 0.033l-0.013-0.002c0.030 0.011 0.064 0.017 0.099 0.017 0.159 0 0.289-0.124 0.298-0.281v-0.001c0.013-0.032 0.021-0.069 0.021-0.108 0-0.147-0.108-0.268-0.249-0.289h-0.002c-0.11-0.011-0.237-0.017-0.366-0.017-0.595 0-1.158 0.135-1.661 0.375l0.023-0.010c-0.664 0.305-1.232 0.699-1.721 1.175l0.001-0.001c-0.473 0.457-0.866 0.993-1.159 1.588l-0.015 0.033c-0.233 0.43-0.37 0.941-0.37 1.484 0 0.060 0.002 0.12 0.005 0.179v-0.008c0.050 0.527 0.324 0.981 0.726 1.27l0.005 0.004c0.513 0.328 1.138 0.524 1.809 0.524 0.096 0 0.19-0.004 0.284-0.012l-0.012 0.001c0.705-0.041 1.348-0.276 1.885-0.652l-0.012 0.008zM107.369 19.098l0.068-0.066c0-0.002-0.001-0.003-0.001-0.005 0-0.015 0.013-0.028 0.028-0.028 0.001 0 0.003 0 0.004 0v0c0.067-0.051 0.111-0.131 0.111-0.221 0-0.103-0.057-0.194-0.141-0.241l-0.001-0.001c-0.053-0.053-0.125-0.086-0.206-0.086-0.015 0-0.030 0.001-0.044 0.003h0.002c-0.089 0.004-0.167 0.049-0.216 0.115l-0.001 0.001-0.032 0.033c-0.019 0.019-0.035 0.041-0.049 0.065l-0.001 0.002c-0.012 0.026-0.029 0.048-0.049 0.066v0c-0.246 0.127-0.551 0.261-0.865 0.378l-0.060 0.020c-0.519 0.2-1.123 0.352-1.751 0.427l-0.036 0.004c0.093-0.246 0.179-0.546 0.241-0.854l0.007-0.040c0.050-0.248 0.080-0.534 0.081-0.826v-0.001q0-1.753-1.453-1.82c-0.026-0.001-0.058-0.002-0.089-0.002-0.364 0-0.709 0.080-1.019 0.223l0.015-0.006c-0.265 0.128-0.493 0.277-0.7 0.451l0.005-0.004c-0.421 0.372-0.703 0.893-0.762 1.48l-0.001 0.010c0.003 0.137 0.015 0.269 0.034 0.398l-0.002-0.017c0.023 0.144 0.058 0.272 0.104 0.394l-0.005-0.014c-0.176 0.133-0.332 0.268-0.479 0.414v0c-0.135 0.131-0.241 0.292-0.308 0.471l-0.003 0.009c-0.123 0.219-0.195 0.482-0.195 0.761 0 0.153 0.022 0.301 0.063 0.442l-0.003-0.011c0.105 0.368 0.301 0.681 0.563 0.925l0.001 0.001c0.22 0.22 0.522 0.358 0.856 0.364h0.001q1.361 0 2.451-1.588l0.266-0.463q0.298-0.032 0.894-0.166c0.397-0.088 0.794-0.187 1.187-0.298 0.422-0.114 0.769-0.233 1.106-0.37l-0.064 0.023c0.202-0.033 0.367-0.165 0.445-0.344l0.001-0.004zM102.888 19.595c-0.183-0.001-0.36-0.025-0.529-0.070l0.015 0.003c-0.444-0.047-0.828-0.268-1.090-0.593l-0.002-0.003v-0.067c-0.104-0.161-0.167-0.357-0.167-0.568 0-0.033 0.001-0.065 0.004-0.097v0.004c0.047-0.41 0.241-0.767 0.527-1.024l0.001-0.001c0.153-0.124 0.327-0.234 0.512-0.324l0.016-0.007c0.225-0.105 0.489-0.167 0.768-0.167 0.022 0 0.044 0 0.066 0.001h-0.003c0.528 0 0.794 0.386 0.794 1.158-0.009 0.638-0.155 1.24-0.408 1.78l0.011-0.027h-0.514zM102.969 20.355c-0.253 0.456-0.619 0.822-1.060 1.068l-0.014 0.007c-0.237 0.116-0.513 0.193-0.805 0.215h-0.008c-0.189-0.003-0.359-0.085-0.478-0.215v0c-0.15-0.157-0.26-0.352-0.314-0.57l-0.002-0.009c-0.021-0.082-0.032-0.176-0.032-0.273 0-0.461 0.268-0.86 0.657-1.048l0.007-0.003c0.161 0.16 0.345 0.298 0.547 0.407l0.013 0.006c0.23 0.123 0.498 0.211 0.783 0.247l0.012 0.001c0.102 0.021 0.227 0.038 0.354 0.049l0.012 0.001c0.131 0.011 0.266 0.017 0.397 0.017zM114.486 23.135c0.444-0.039 0.849-0.176 1.204-0.388l-0.013 0.007c0.482-0.275 0.898-0.571 1.283-0.902l-0.010 0.009c0.399-0.335 0.76-0.676 1.1-1.036l0.006-0.006c0.418-0.392 0.807-0.796 1.174-1.221l0.017-0.020c0.163-0.174 0.316-0.363 0.454-0.563l0.011-0.016c0.066-0.052 0.109-0.131 0.109-0.221 0-0.103-0.056-0.193-0.139-0.241l-0.001-0.001c-0.053-0.053-0.125-0.086-0.206-0.086-0.015 0-0.030 0.001-0.044 0.003h0.002c-0.089 0.004-0.167 0.049-0.216 0.115l-0.001 0.001c-0.149 0.216-0.302 0.405-0.467 0.582l0.003-0.003c-0.374 0.433-0.751 0.826-1.147 1.2l-0.008 0.007c-0.176 0.177-0.415 0.408-0.713 0.695-0.29 0.279-0.602 0.539-0.931 0.777l-0.025 0.017c-0.29 0.214-0.625 0.388-0.986 0.506l-0.025 0.007c-0.082 0.032-0.176 0.051-0.275 0.051-0.216 0-0.41-0.089-0.55-0.231v0c-0.179-0.238-0.294-0.534-0.316-0.855v-0.005c-0.045-0.328-0.070-0.707-0.070-1.092 0-0.076 0.001-0.152 0.003-0.228v0.011c0.014-0.474 0.041-0.959 0.086-1.456s0.099-0.943 0.162-1.34c0.113-0.772 0.176-1.378 0.199-1.82 0.010-0.059 0.016-0.127 0.016-0.197 0-0.276-0.093-0.53-0.249-0.732l0.002 0.003c-0.083-0.116-0.215-0.193-0.365-0.199h-0.001q-0.657-0.099-1.422 1.555-0.298 0.662-0.596 1.439c-0.199 0.519-0.384 1.031-0.56 1.538l-0.731 1.952c0-0.176 0.004-0.375 0.018-0.596s0.018-0.419 0.018-0.596c0.041-0.927 0.059-1.665 0.050-2.217 0.003-0.042 0.005-0.091 0.005-0.14 0-0.366-0.108-0.707-0.294-0.992l0.004 0.007c-0.099-0.102-0.237-0.166-0.39-0.166-0.003 0-0.005 0-0.008 0v0c-0.307 0-0.718 0.375-1.223 1.125q-0.23 0.397-0.514 0.91-0.278 0.513-0.609 1.173c0.063-0.309 0.126-0.596 0.181-0.86l0.149-0.728c0.064-0.276 0.101-0.593 0.101-0.919 0-0.043-0.001-0.087-0.002-0.13v0.006c-0.010-0.154-0.058-0.295-0.133-0.417l0.002 0.004c-0.065-0.101-0.176-0.167-0.303-0.167-0.011 0-0.022 0-0.032 0.001h0.001c-0.012-0.002-0.027-0.003-0.041-0.003-0.161 0-0.292 0.131-0.292 0.292 0 0.015 0.001 0.029 0.003 0.044v-0.002c-0.002 0.012-0.004 0.026-0.004 0.040 0 0.088 0.056 0.163 0.133 0.191h0.001q0 0.166-0.081 0.812c-0.054 0.43-0.217 1.23-0.478 2.399-0.090 0.353-0.176 0.7-0.266 1.042s-0.167 0.645-0.23 0.91c-0.091 0.355-0.182 0.642-0.287 0.922l0.020-0.062c-0.010 0.029-0.016 0.063-0.016 0.098 0 0.148 0.105 0.271 0.244 0.299h0.002c0.024 0.021 0.056 0.033 0.091 0.033 0.003 0 0.006 0 0.009 0v0c0.010 0.001 0.021 0.002 0.033 0.002 0.125 0 0.231-0.084 0.265-0.198l0.001-0.002c0.158-0.352 0.298-0.672 0.433-0.959s0.28-0.612 0.447-0.976 0.334-0.733 0.51-1.108c0.442-0.927 0.867-1.691 1.333-2.427l-0.056 0.095c0.178-0.281 0.358-0.524 0.554-0.754l-0.008 0.009c0.046 0.086 0.076 0.188 0.081 0.296v0.002c0.009 0.132 0.018 0.331 0.018 0.596 0.009 0.136 0.014 0.295 0.014 0.455s-0.005 0.319-0.015 0.477l0.001-0.022q-0.034 0.48-0.068 0.943c-0.026 0.359-0.042 0.778-0.042 1.2 0 0.206 0.004 0.412 0.011 0.617l-0.001-0.030c-0.002 0.020-0.003 0.043-0.003 0.066 0 0.234 0.118 0.44 0.299 0.561l0.002 0.002c0.058 0.027 0.126 0.044 0.197 0.050h0.002c0.121-0.003 0.228-0.060 0.297-0.148l0.001-0.001c0.223-0.25 0.397-0.548 0.505-0.876l0.005-0.018c0.19-0.463 0.424-1.103 0.713-1.919q0.264-0.695 0.528-1.439t0.528-1.34c0.176-0.366 0.347-0.669 0.535-0.961l-0.021 0.034c0.081-0.125 0.163-0.233 0.251-0.334l-0.003 0.004c0.028 0.063 0.046 0.137 0.050 0.214v0.001c0.002 0.036 0.004 0.078 0.004 0.12 0 0.103-0.008 0.205-0.023 0.304l0.001-0.011-0.162 1.522c-0.068 0.486-0.126 0.998-0.185 1.538s-0.081 1.065-0.081 1.571c0 0.014 0 0.031 0 0.048 0 0.475 0.048 0.938 0.139 1.386l-0.008-0.045c0.069 0.379 0.221 0.715 0.437 0.999l-0.004-0.006c0.153 0.316 0.471 0.53 0.838 0.53 0.019 0 0.039-0.001 0.058-0.002h-0.003z"></path>
</svg>
