{
    "asset" : {
        "generator" : "Khronos glTF Blender I/O v1.5.17",
        "version" : "2.0"
    },
    "extensionsUsed" : [
        "KHR_lights_punctual"
    ],
    "extensionsRequired" : [
        "KHR_lights_punctual"
    ],
    "extensions" : {
        "KHR_lights_punctual" : {
            "lights" : [
                {
                    "color" : [
                        1,
                        0.99729984998703,
                        0.480183482170105
                    ],
                    "intensity" : 10,
                    "spot" : {
                        "innerConeAngle" : 0.3337942263919169,
                        "outerConeAngle" : 0.39269909262657166
                    },
                    "type" : "spot",
                    "name" : "point"
                }
            ]
        }
    },
    "scene" : 0,
    "scenes" : [
        {
            "name" : "Scene",
            "nodes" : [
                1,
                3,
                4,
                5,
                6,
                7,
                8,
                9,
                10,
                11,
                12,
                13,
                14,
                15,
                16,
                17,
                18,
                19,
                20,
                21,
                22,
                23,
                24,
                25,
                26,
                27,
                28
            ]
        }
    ],
    "nodes" : [
        {
            "camera" : 0,
            "name" : "camera_Orientation",
            "rotation" : [
                -0.7071067690849304,
                0,
                0,
                0.7071067690849304
            ]
        },
        {
            "children" : [
                0
            ],
            "name" : "camera",
            "rotation" : [
                0.6707609295845032,
                0.1228737011551857,
                0.018181251361966133,
                0.7311986088752747
            ],
            "scale" : [
                0.9817163944244385,
                0.9817163944244385,
                0.9817163944244385
            ],
            "translation" : [
                0.37115561962127686,
                1.9530630111694336,
                26.89885902404785
            ]
        },
        {
            "extensions" : {
                "KHR_lights_punctual" : {
                    "light" : 0
                }
            },
            "name" : "point_Orientation",
            "rotation" : [
                -0.7071067690849304,
                0,
                0,
                0.7071067690849304
            ]
        },
        {
            "children" : [
                2
            ],
            "name" : "point",
            "rotation" : [
                -0.024300547316670418,
                -0.12550707161426544,
                -0.07907448709011078,
                0.9886378049850464
            ],
            "translation" : [
                0.11518406867980957,
                9.479608535766602,
                -0.11412596702575684
            ]
        },
        {
            "name" : "metaboll"
        },
        {
            "name" : "metaboll.001",
            "scale" : [
                0.15609519183635712,
                0.15609519183635712,
                0.15609519183635712
            ],
            "translation" : [
                -0.19874712824821472,
                -2.3794994354248047,
                -0.5127077698707581
            ]
        },
        {
            "name" : "metaboll.002",
            "scale" : [
                -0.6159380674362183,
                -0.6159380674362183,
                -0.6159380674362183
            ],
            "translation" : [
                -1.262770414352417,
                -3.6189823150634766,
                0.3504325747489929
            ]
        },
        {
            "name" : "metaboll.003",
            "scale" : [
                0.8194745779037476,
                0.8194745779037476,
                0.8194745779037476
            ],
            "translation" : [
                2.4358596801757812,
                0.1786811649799347,
                0.8010243773460388
            ]
        },
        {
            "name" : "metaboll.004",
            "scale" : [
                -0.21361416578292847,
                -0.21361416578292847,
                -0.21361416578292847
            ],
            "translation" : [
                -0.8462296724319458,
                -1.8077774047851562,
                -3.2136411666870117
            ]
        },
        {
            "name" : "metaboll.005",
            "scale" : [
                0.5244141817092896,
                0.5244141817092896,
                0.5244141817092896
            ],
            "translation" : [
                1.8128962516784668,
                1.3711837530136108,
                2.958348512649536
            ]
        },
        {
            "name" : "metaboll.006",
            "scale" : [
                0.303691565990448,
                0.303691565990448,
                0.303691565990448
            ],
            "translation" : [
                -0.02540237456560135,
                -0.9464116096496582,
                1.9145852327346802
            ]
        },
        {
            "name" : "metaboll007",
            "scale" : [
                0.2403877079486847,
                0.2403877079486847,
                0.2403877079486847
            ],
            "translation" : [
                -3.1715095043182373,
                0.1150163859128952,
                -3.720984697341919
            ]
        },
        {
            "name" : "metaboll.008",
            "scale" : [
                -0.41330066323280334,
                -0.41330066323280334,
                -0.41330066323280334
            ],
            "translation" : [
                0.7719449400901794,
                1.0853359699249268,
                -1.9555637836456299
            ]
        },
        {
            "name" : "metaboll.009",
            "scale" : [
                -0.28066685795783997,
                -0.28066685795783997,
                -0.28066685795783997
            ],
            "translation" : [
                2.9606635570526123,
                -1.1299492120742798,
                -0.9141508936882019
            ]
        },
        {
            "name" : "metaboll.010",
            "scale" : [
                0.47978344559669495,
                0.47978344559669495,
                0.47978344559669495
            ],
            "translation" : [
                1.4361404180526733,
                2.743220329284668,
                -0.2830357253551483
            ]
        },
        {
            "name" : "metaboll.011",
            "scale" : [
                -0.6594163179397583,
                -0.6594163179397583,
                -0.6594163179397583
            ],
            "translation" : [
                -0.2169281542301178,
                3.5754306316375732,
                -2.637436628341675
            ]
        },
        {
            "name" : "metaboll.012",
            "scale" : [
                -0.6050365567207336,
                -0.6050365567207336,
                -0.6050365567207336
            ],
            "translation" : [
                -2.405683994293213,
                0.4718974530696869,
                -1.5692274570465088
            ]
        },
        {
            "name" : "metaboll.013",
            "scale" : [
                0.35552871227264404,
                0.35552871227264404,
                0.35552871227264404
            ],
            "translation" : [
                -2.608907461166382,
                -0.07758843153715134,
                -1.4431933164596558
            ]
        },
        {
            "name" : "metaboll.014",
            "scale" : [
                -0.6245037913322449,
                -0.6245037913322449,
                -0.6245037913322449
            ],
            "translation" : [
                -3.979011297225952,
                -1.2686394453048706,
                -0.15937179327011108
            ]
        },
        {
            "name" : "metaboll015",
            "scale" : [
                0.07465504854917526,
                0.07465504854917526,
                0.07465504854917526
            ],
            "translation" : [
                -1.5041849613189697,
                -3.618596076965332,
                -1.345383644104004
            ]
        },
        {
            "name" : "metaboll.016",
            "scale" : [
                0.49639183282852173,
                0.49639183282852173,
                0.49639183282852173
            ],
            "translation" : [
                1.5121569633483887,
                -1.4995559453964233,
                -2.41375470161438
            ]
        },
        {
            "name" : "metaboll.017",
            "scale" : [
                0.3963122069835663,
                0.3963122069835663,
                0.3963122069835663
            ],
            "translation" : [
                -3.6652286052703857,
                -0.07701632380485535,
                -1.1085331439971924
            ]
        },
        {
            "name" : "metaboll.018",
            "scale" : [
                0.038349926471710205,
                0.038349926471710205,
                0.038349926471710205
            ],
            "translation" : [
                -0.826948881149292,
                3.275118112564087,
                -1.0770082473754883
            ]
        },
        {
            "name" : "metaboll.019",
            "scale" : [
                -0.18995384871959686,
                -0.18995384871959686,
                -0.18995384871959686
            ],
            "translation" : [
                -0.7471479773521423,
                -0.469693124294281,
                -0.03542138263583183
            ]
        },
        {
            "name" : "metaboll.020",
            "scale" : [
                -0.832389771938324,
                -0.832389771938324,
                -0.832389771938324
            ],
            "translation" : [
                0.3756738305091858,
                -1.259205937385559,
                2.475506544113159
            ]
        },
        {
            "name" : "metaboll.021",
            "scale" : [
                -0.10649194568395615,
                -0.10649194568395615,
                -0.10649194568395615
            ],
            "translation" : [
                -0.41280388832092285,
                -0.48663246631622314,
                -3.260462760925293
            ]
        },
        {
            "name" : "metaboll.022",
            "scale" : [
                -0.6461468935012817,
                -0.6461468935012817,
                -0.6461468935012817
            ],
            "translation" : [
                -1.148486852645874,
                -2.115074396133423,
                0.42858222126960754
            ]
        },
        {
            "name" : "metaboll.023",
            "scale" : [
                -0.5964438915252686,
                -0.5964438915252686,
                -0.5964438915252686
            ],
            "translation" : [
                -0.16559752821922302,
                1.4045953750610352,
                -2.7464191913604736
            ]
        },
        {
            "name" : "metaboll.024",
            "scale" : [
                -0.7868329882621765,
                -0.7868329882621765,
                -0.7868329882621765
            ],
            "translation" : [
                -3.04587984085083,
                2.384363889694214,
                -0.8549248576164246
            ]
        }
    ],
    "cameras" : [
        {
            "name" : "camera",
            "perspective" : {
                "aspectRatio" : 1.7777777777777777,
                "yfov" : 0.39959648408210363,
                "zfar" : 1000,
                "znear" : 0.10000000149011612
            },
            "type" : "perspective"
        }
    ],
    "animations" : [
        {
            "channels" : [
                {
                    "sampler" : 0,
                    "target" : {
                        "node" : 1,
                        "path" : "translation"
                    }
                },
                {
                    "sampler" : 1,
                    "target" : {
                        "node" : 1,
                        "path" : "rotation"
                    }
                },
                {
                    "sampler" : 2,
                    "target" : {
                        "node" : 1,
                        "path" : "scale"
                    }
                }
            ],
            "name" : "\u30ab\u30e1\u30e9Action.001",
            "samplers" : [
                {
                    "input" : 0,
                    "interpolation" : "LINEAR",
                    "output" : 1
                },
                {
                    "input" : 0,
                    "interpolation" : "LINEAR",
                    "output" : 2
                },
                {
                    "input" : 0,
                    "interpolation" : "LINEAR",
                    "output" : 3
                }
            ]
        }
    ],
    "accessors" : [
        {
            "bufferView" : 0,
            "componentType" : 5126,
            "count" : 80,
            "max" : [
                3.3333333333333335
            ],
            "min" : [
                0.041666666666666664
            ],
            "type" : "SCALAR"
        },
        {
            "bufferView" : 1,
            "componentType" : 5126,
            "count" : 80,
            "type" : "VEC3"
        },
        {
            "bufferView" : 2,
            "componentType" : 5126,
            "count" : 80,
            "type" : "VEC4"
        },
        {
            "bufferView" : 3,
            "componentType" : 5126,
            "count" : 80,
            "type" : "VEC3"
        }
    ],
    "bufferViews" : [
        {
            "buffer" : 0,
            "byteLength" : 320,
            "byteOffset" : 0
        },
        {
            "buffer" : 0,
            "byteLength" : 960,
            "byteOffset" : 320
        },
        {
            "buffer" : 0,
            "byteLength" : 1280,
            "byteOffset" : 1280
        },
        {
            "buffer" : 0,
            "byteLength" : 960,
            "byteOffset" : 2560
        }
    ],
    "buffers" : [
        {
            "byteLength" : 3520,
            "uri" : "#4.bin"
        }
    ]
}
