<svg xmlns="http://www.w3.org/2000/svg" viewBox="0 0 1154.06 308.18"><defs><style>.cls-1{fill:#fff;fill-rule:evenodd;}</style></defs><g id="レイヤー_2" data-name="レイヤー 2"><g id="name"><g id="Kubo_Niku.com" data-name="Kubo Niku.com"><path class="" d="M136.12,68.85l-6.05,1.91a10.42,10.42,0,0,1-.8,3.67q-.79,2.07-2.55,5.73t-5.26,9.4q-4.45,7.34-10.83,16.1T96.61,124q-7.65,9.55-16.26,19.6t-17.2,19.6Q52.31,175,43.71,183.25T28.73,197q1.59-7,3.66-14.34T37,167q5.75-21.34,11.48-41.43L58.68,89.88q4.47-15.61,7.17-25.17t2.71-9.88q1.27-3.18-2.23-3.83c-1.7-.64-3,0-3.82,1.91q0,.33-2.71,9.88T52.47,88q-4.62,15.61-10.2,35.69T31,165.09L20.44,203.65a32.62,32.62,0,0,1-4.78,3c-1.49.74-2.76,1.33-3.82,1.75a56.26,56.26,0,0,0-6.69,1c-1.71.63-2.34,1.91-1.92,3.82.43,1.49,1.17,2.28,2.23,2.39s1.81.16,2.24.16l3.5-.64a2.22,2.22,0,0,0,1-.16,2.26,2.26,0,0,1,.95-.16,14.09,14.09,0,0,0,2.07-.16,18,18,0,0,1,2.39-.16Q-.91,284.61.05,294.79c0,2.12,1.06,3.19,3.18,3.19,2.12-.43,3.19-1.6,3.19-3.51q0-1.28.48-5.57t2.39-13.39q1.91-9.08,5.42-23.9T24,214.48c3,.22,6.16.48,9.56.8A79.42,79.42,0,0,1,44,217q16.89,3.83,29,12.43a78.9,78.9,0,0,1,25.5,27.41,3.13,3.13,0,0,0,2.87,1.59,3.47,3.47,0,0,0,1.59-.32q2.55-1.9,1-4.46A83.51,83.51,0,0,0,91.83,237a88.76,88.76,0,0,0-15.62-13.22,92.74,92.74,0,0,0-31.55-13.07q-5.41-1-10-1.59t-8.76-1v-.64q5.1-3.83,11-8.92t11.48-10.68q5.56-5.56,10.83-11t9.4-10.2q8.93-9.87,17.69-20.07t16.41-20.08q7.65-9.87,14-18.8t10.84-16.26q7-11.14,8.12-15.77T136.12,68.85Zm173-63.42Q306.29,0,300.88,0q-6.06-.32-12.43,6.54t-13.7,21.51a315.58,315.58,0,0,0-13.23,29Q255,73.31,249.09,91t-11.31,35.53q-5.42,17.85-9.56,33.46-2.25,9.13-4.29,17.75a2.57,2.57,0,0,0-1.76,1c0,.22-1.49,2.07-4.47,5.58A154.75,154.75,0,0,1,206.55,196a104,104,0,0,1-15.46,13.54,46,46,0,0,1-12.58,6.54,1.17,1.17,0,0,1-1.6-1,12.74,12.74,0,0,1-.32-3,13.24,13.24,0,0,1,.48-3.5,11.13,11.13,0,0,0,.48-2.39A85.41,85.41,0,0,1,180.1,197q1.59-4.78,3.19-9.24.94-3.51,1.91-6.38c.64-1.91,1.16-3.71,1.59-5.42a19.57,19.57,0,0,0,.8-5.09,3.75,3.75,0,0,0-2.71-4.15,4.37,4.37,0,0,0-4.78,1.12,48.06,48.06,0,0,0-4.78,5.26l-10.2,14.34q-3.51,5.41-7,10.51t-7,9.56q-5.1,6.39-7,7.49a9.32,9.32,0,0,1-2.23,1.12q-5.43,0-7.33-5.74a31.45,31.45,0,0,1-.48-9.88,53.73,53.73,0,0,1,2.71-12.74,53.32,53.32,0,0,1,4-10.52c1.38-2.55,2.39-4,3-4.46a3,3,0,0,0,2.23-3.83q-.65-3.18-3.82-2.55-3.19,1-6.06,5.74l-4.46,10.2A92,92,0,0,0,128.79,193a47.41,47.41,0,0,0-.95,14.5,19.42,19.42,0,0,0,1.91,7.81,13.77,13.77,0,0,0,3.66,4.62,10.65,10.65,0,0,0,4.31,2.07,19.66,19.66,0,0,0,4.14.48q5.41,0,11.95-8.28t16.73-23.27q4.78-7.32,9.24-13.38l-2.55,8.28a194.82,194.82,0,0,0-6.21,22q-1.76,8.61,1.75,12.75,2.55,2.55,7.65,1.59,12.74-3.49,30.59-21.67,5.91-5.64,10-10.27c-.31,1.36-.62,2.72-.93,4.06q-3.66,16.09-5.57,28.84-1.61,10.83-2.07,17.37a64.65,64.65,0,0,0-.16,10,17,17,0,0,0,1,4.94,7.07,7.07,0,0,0,1.28,2.08,3,3,0,0,0,2.55,1.27h.63c1.49-.42,2.23-1.27,2.23-2.55q2.23-8,4-14.34t4.3-14.18q2.55-7.8,6.06-16.09a143.88,143.88,0,0,1,11-21,63.81,63.81,0,0,1,9.88-12.11,22.26,22.26,0,0,1,8.76-5.25,20.53,20.53,0,0,1,7.33-.8q7,1.28,8.92,6.37a18.51,18.51,0,0,1,.16,8.13,41.56,41.56,0,0,1-3.66,11,95.49,95.49,0,0,1-6.37,11.32A124.26,124.26,0,0,1,262,220.54q-6.69,8-11,10.52c-2.87,1.7-4.63,2.44-5.26,2.23-.85,0-1.39-.64-1.6-1.92q-.63-2.87.64-8a70.15,70.15,0,0,1,4.14-11.48,62.42,62.42,0,0,1,5.58-10.19,50,50,0,0,1,3.35-4.46c1.91-.85,2.44-2.24,1.59-4.15q-1.59-2.87-4.46-1.27a14.28,14.28,0,0,0-3.51,3.34,44.6,44.6,0,0,0-3.5,5.1c-1.07,1.81-2,3.51-2.87,5.1s-1.38,2.61-1.59,3q-1.92,4.47-4.31,11.31A24.45,24.45,0,0,0,237.78,232c.42,3,1.38,4.94,2.87,5.9a11.74,11.74,0,0,0,3.82,1.75,8.18,8.18,0,0,0,5.58-.8A31.6,31.6,0,0,0,256.1,235a66.79,66.79,0,0,0,5.9-5.26c1.91-1.91,3.51-3.61,4.78-5.1q3.51-4.14,7.81-10.2a85.22,85.22,0,0,0,7.49-12.74,55.64,55.64,0,0,0,4.46-13.23,22.51,22.51,0,0,0-.64-11.95,12,12,0,0,0-5.74-7.65,25.85,25.85,0,0,0-8-2.86q-14-1.92-25.82,12.1-9.87,11.47-17.84,30.92-2.86,6.69-5.26,13.22t-4,12.27L220.89,224q1.59-10.51,4.46-23.74t6.38-27.88c1.69.43,3.5-.16,5.41-1.75a50.44,50.44,0,0,0,7.33-8.45,167.62,167.62,0,0,0,10.36-15q5.57-8.91,11.47-19.6T278.09,105q5.9-12,11.32-24.06,5.73-13.06,10.19-24.38a206.66,206.66,0,0,0,7-20.56Q313,14.36,309.16,5.43Zm-11.63,39q-8.11,23.41-23.42,54.33-6.37,13.08-13.07,25T248.3,145.33a164.29,164.29,0,0,1-9.72,14.34q-3.35,4.16-4.94,5.74l1-3.83q4.14-15.6,9.25-33.3t11.15-35q6-17.37,12.43-33.62a263.88,263.88,0,0,1,13.06-28.68,124.54,124.54,0,0,1,11.16-18q5.08-6.52,8.6-6.53h.32a4,4,0,0,1,1.75.63c.74.43,1.33,1.81,1.76,4.15Q305.66,21.06,297.53,44.47Zm86.21,134a2.79,2.79,0,0,0-2.39-.79,2.71,2.71,0,0,0-2.08,1.11l-.31.32a2.23,2.23,0,0,0-.48.64,2.67,2.67,0,0,1-.48.64,87.86,87.86,0,0,1-8.92,3.82,72.77,72.77,0,0,1-17.21,4.14,59.74,59.74,0,0,0,2.39-8.6,42.27,42.27,0,0,0,.79-8q0-16.89-14-17.53a23.41,23.41,0,0,0-10.51,2.08,31.44,31.44,0,0,0-6.7,4.3A21.91,21.91,0,0,0,316.49,175a24.73,24.73,0,0,0,.32,3.66,16.2,16.2,0,0,0,1,3.67,42.46,42.46,0,0,0-4.62,4,12.91,12.91,0,0,0-3,4.62,15.09,15.09,0,0,0-1.27,11.47,19.11,19.11,0,0,0,5.41,8.93,12,12,0,0,0,8.29,3.5q13.06,0,23.58-15.29l2.55-4.47a84.84,84.84,0,0,0,8.6-1.59q5.75-1.27,11.48-2.87a92,92,0,0,0,10-3.34c2.86-1.17,4.3-2.28,4.3-3.35l.64-.64a.28.28,0,0,1,.31-.32C385.54,181.24,385.43,179.75,383.74,178.47Zm-43,17.53q-5.41,8.3-10.35,10.36a21.89,21.89,0,0,1-7.81,2.07,6.4,6.4,0,0,1-4.62-2.07,12.2,12.2,0,0,1-3-5.58Q313,193.13,321,188a23.72,23.72,0,0,0,5.41,4,22.35,22.35,0,0,0,7.65,2.39,32.42,32.42,0,0,0,3.51.48c1.27.1,2.55.15,3.82.15Zm4.15-7.33h-4.94A20.07,20.07,0,0,1,335,188q-7.34-1.26-10.52-5.73v-.64c-1.06-1.27-1.59-3.4-1.59-6.37a15.42,15.42,0,0,1,5.1-9.88,26.81,26.81,0,0,1,5.1-3.19,17.74,17.74,0,0,1,8-1.59q7.65,0,7.65,11.15A41.36,41.36,0,0,1,344.86,188.67ZM548.81,235.2q.32-21,2.87-43.18t5.1-42.55q4.14-30.58,5.57-51.3t-4.94-28a9.39,9.39,0,0,0-7.64-3.5q-12.43,0-30.28,29.63-6.69,11.16-14.18,26.61t-15.77,35.22q-6.39,15.93-12.27,31.23T466.91,217q1.59-10.83,3-23.26t3-25.49q1.9-18.17,3-32.35t1.44-25c.21-4.24.32-8.07.32-11.47a55.49,55.49,0,0,0-.64-8.92q-1-9.24-5.1-11.16-2.55-1.59-4.14,1.28a3.23,3.23,0,0,0,1.27,4.14,5.9,5.9,0,0,1,.8,1.91,52.82,52.82,0,0,1,1.11,6.7,153.47,153.47,0,0,1,0,20.07q-.65,10.52-1.59,24.7t-3.19,31.71q-1.59,15-3.34,29t-3.35,25q-1.59,11-2.55,17.68t-1,7q-.63,2.86,2.55,3.51a3,3,0,0,0,3.83-2.23q5.08-15.62,9.56-28.21t10.52-28.52q6-15.93,13.06-32.5,16.57-39.51,29.32-61.19A150.27,150.27,0,0,1,534,85.58a51.55,51.55,0,0,1,7.17-8A25,25,0,0,1,546.42,74a8.49,8.49,0,0,1,3.35-1,3.34,3.34,0,0,1,2.86,1.28q4.14,4.45,3.19,25.49-.65,10.2-2.07,22.63t-3.35,26.13q-2.86,20.72-5.25,43.34t-2.71,43.82a207.14,207.14,0,0,0,3,39.83q3.35,18.64,11.95,31.39a3,3,0,0,0,2.55,1.28,2.65,2.65,0,0,0,1.92-.64c1.48-1.07,1.69-2.55.63-4.46Q548.48,282.35,548.81,235.2Zm61-86.36a9.12,9.12,0,0,0,6.65-2.71,9.12,9.12,0,0,0,0-13.07,9.16,9.16,0,0,0-6.65-2.71,9.25,9.25,0,0,0,0,18.49Zm-.15-12.11a2.87,2.87,0,1,1,0,5.73c-1.71,0-2.55-1-2.55-2.87S608,136.73,609.68,136.73Zm252.07,41.74a2.78,2.78,0,0,0-2.39-.79,2.69,2.69,0,0,0-2.07,1.11c0,.22-1.49,2.07-4.46,5.58A156.79,156.79,0,0,1,841.68,196a104,104,0,0,1-15.46,13.54,46,46,0,0,1-12.59,6.54,1.16,1.16,0,0,1-1.59-1,12.24,12.24,0,0,1-.32-3,13.24,13.24,0,0,1,.48-3.5,11.13,11.13,0,0,0,.48-2.39,83.18,83.18,0,0,1,2.55-9.24q1.59-4.78,3.18-9.24,1-3.51,1.91-6.38c.64-1.91,1.17-3.71,1.6-5.42a20.07,20.07,0,0,0,.79-5.09,3.73,3.73,0,0,0-2.7-4.15,4.37,4.37,0,0,0-4.78,1.12,48,48,0,0,0-4.79,5.26L800.25,187.4q-3.51,5.41-7,10.51t-7,9.56c-3.41,4.26-5.74,6.75-7,7.49a9.13,9.13,0,0,1-2.23,1.12q-5.41,0-7.33-5.74a31.79,31.79,0,0,1-.47-9.88,53.68,53.68,0,0,1,2.7-12.74,53.25,53.25,0,0,1,4-10.52c1.38-2.55,2.39-4,3-4.46a3,3,0,0,0,2.23-3.83q-.64-3.18-3.83-2.55-3.18,1-6,5.74l-2.71,6.19a2.08,2.08,0,0,0-.48.5c0,.22-1.49,2.07-4.46,5.58A156.79,156.79,0,0,1,752.45,196,114.92,114.92,0,0,1,736,211a40.93,40.93,0,0,1-13.54,6.69,26.79,26.79,0,0,1-11.31.8,60.32,60.32,0,0,1-11.48-2.71A54.4,54.4,0,0,1,689.35,211a31.35,31.35,0,0,1-7.33-5.74,9.42,9.42,0,0,1-2.55-4.78q11.14-.63,18.32-5.57a71.48,71.48,0,0,0,11.63-9.72,49.92,49.92,0,0,0,7.17-11.48q2.71-6,2.71-9.24a4,4,0,0,0-1.11-3.19,3.67,3.67,0,0,0-2.39-.95q-12.75,0-38.88,31.23-5.74,7-10.52,13.54t-8,11q-.65-5.75,1.27-18.8,1.27-7.34,3-15.94t4.3-18.48a21.5,21.5,0,0,0,4.94-4,119.47,119.47,0,0,0,8.13-9.4q4.77-6.69,10.51-15.45t11.63-18.8q5.89-10.05,11.64-20.88T724.72,73q5.73-11.47,9.88-21.67t6.69-18.48q6.38-19.76,2.55-27.41Q741.29,0,735.56,0q-6.7-.32-15,9.25-6.69,7-14.66,22.62-5.1,9.89-10.52,22.63t-10.67,27.4q-5.26,14.67-10.36,30.6t-9.24,32.18q-4.15,15-7,28.05c-.39,1.76-.76,3.48-1.11,5.18a2.33,2.33,0,0,0-1.12.87c0,.22-1.49,2.07-4.47,5.58A154.75,154.75,0,0,1,640.27,196,92.3,92.3,0,0,1,622,210.34a56.81,56.81,0,0,1-21.51,7.33q-7.34.65-9.88-2.87a12.84,12.84,0,0,1-1.28-5.26q-.31-3.66,1.91-11a89.64,89.64,0,0,1,4.15-11.15c1.7-3.83,3.29-7.22,4.78-10.2.84-1.91,1.59-3.61,2.23-5.1s1.16-2.76,1.59-3.82q.63-3.19-2.23-4.15-3.19-.63-3.82,2.23l-3.83,8.29q-2.23,5.1-4.94,11.15a79.43,79.43,0,0,0-4.3,12.11,50.93,50.93,0,0,0-1.75,11.48,15.4,15.4,0,0,0,2.39,9.24q3.82,5.42,12.75,5.41h2.86q14-.94,24.22-7.48a108.44,108.44,0,0,0,19.44-16.1q5.84-5.57,9.91-10.15-.54,3.1-1,6-1.29,8-1.6,13.22a58.18,58.18,0,0,0,0,8.61,18.79,18.79,0,0,0,1,4.94,13.69,13.69,0,0,0,1.27,2.55,3.67,3.67,0,0,0,2.55,1.27,2.57,2.57,0,0,0,2.55-1.27q.32-.31,4.46-6.22t10.52-14.18a13.73,13.73,0,0,0,2.87,4.46q7,7.34,22,11.48a58.69,58.69,0,0,0,18,2.55,40.71,40.71,0,0,0,14.5-3.19,46.17,46.17,0,0,0,12.59-8.13q5.89-5.25,12.59-11.95,3.83-3.65,6.88-6.88a47.29,47.29,0,0,0-.83,13.89,19.59,19.59,0,0,0,1.91,7.81,13.66,13.66,0,0,0,3.67,4.62,10.62,10.62,0,0,0,4.3,2.07,19.73,19.73,0,0,0,4.14.48q5.41,0,11.95-8.28t16.73-23.27q4.79-7.32,9.25-13.38l-2.55,8.28a197.35,197.35,0,0,0-6.22,22q-1.75,8.61,1.76,12.75,2.54,2.55,7.64,1.59,12.75-3.49,30.6-21.67a161.86,161.86,0,0,0,11.47-12q4.46-5.25,4.46-5.58C863.55,181.24,863.45,179.75,861.75,178.47Zm-171.92,7.81q3.66-4,7.48-7.81a76.44,76.44,0,0,1,7.81-6.85,32.34,32.34,0,0,1,7.17-4.3,47.24,47.24,0,0,1-3.18,7,36.32,36.32,0,0,1-6.38,8.29q-8.6,8.92-19.12,10.83Q686.16,190.27,689.83,186.28Zm-18.65-40q4.14-15.93,9.24-31.71T690.78,84.3Q696,69.81,701.3,57.22t10.35-22.47a165.56,165.56,0,0,1,8.93-15.14,73.36,73.36,0,0,1,6.69-8.6,15.19,15.19,0,0,1,4.94-3.83,10,10,0,0,1,3-.79,5.32,5.32,0,0,1,2.07.48c.74.31,1.22,1.64,1.43,4q.64,4.78-1.27,12.91a146.37,146.37,0,0,1-6.06,18.8q-4.14,10.68-10.19,23.74t-14,27.41q-6.69,12.11-13.38,23.42t-13.07,20.55q-3.82,5.43-6.53,8.93t-4.62,5.73A28.42,28.42,0,0,1,671.18,146.29ZM867.81,219.9a9.21,9.21,0,0,0-6.54,2.55,8.41,8.41,0,0,0-2.7,6.37,9.24,9.24,0,1,0,18.48,0,8.42,8.42,0,0,0-2.71-6.37A9.19,9.19,0,0,0,867.81,219.9Zm0,11.79a2.53,2.53,0,0,1-2.87-2.87c0-1.69.95-2.54,2.87-2.54s2.86.85,2.86,2.54A2.53,2.53,0,0,1,867.81,231.69Zm284.89-53.22a2.77,2.77,0,0,0-2.39-.79,2.7,2.7,0,0,0-2.07,1.11c0,.22-1.49,2.07-4.46,5.58A156.79,156.79,0,0,1,1132.63,196q-2.57,2.55-6.85,6.69a78.45,78.45,0,0,1-9.25,7.65,33.66,33.66,0,0,1-9.71,4.94q-4.78,1.44-8-1.75-2.24-2.55-3-8.29a78.14,78.14,0,0,1-.64-12.59q.16-6.84.8-14c.42-4.78,1-9.08,1.59-12.9q1.59-11.16,1.92-17.53c.2-4.25-.54-7.22-2.24-8.92a4.55,4.55,0,0,0-3.5-1.92q-6.37-.95-13.7,15-2.88,6.38-5.74,13.86T1068.89,181l-7,18.8c0-1.69,0-3.61.16-5.73s.16-4,.16-5.74q.63-13.38.48-21.35T1060,156.17a5.25,5.25,0,0,0-3.82-1.6q-4.47,0-11.8,10.84-2.22,3.83-4.94,8.76c-1,1.91-2.15,4-3.3,6.22a2.84,2.84,0,0,0-1.14-1.76l.3-1.43q.8-3.82,1.44-7c.84-4.89,1.16-8.23,1-10a8.41,8.41,0,0,0-1.27-4,3.45,3.45,0,0,0-3.19-1.6c-2.13,0-3.19,1.07-3.19,3.19,0,1.27.43,2,1.28,2.23,0,1.07-.27,3.66-.8,7.81q-.52,4.15-2.42,13.1c-1.49.72-4.12,1.82-7.94,3.31a72.56,72.56,0,0,1-17.2,4.14,59.74,59.74,0,0,0,2.39-8.6,43.11,43.11,0,0,0,.79-8q0-16.89-14-17.53a23.48,23.48,0,0,0-10.52,2.08,31.6,31.6,0,0,0-6.69,4.3A21.91,21.91,0,0,0,967.55,175a20.83,20.83,0,0,0,.19,2.7,2,2,0,0,0-.35,0,2.7,2.7,0,0,0-2.07,1.11c0,.22-1.49,2.07-4.46,5.58A156.79,156.79,0,0,1,949.71,196a100.23,100.23,0,0,1-16.57,14q-8.61,5.74-16.58,5.74-11.14,0-15.45-4.14a12,12,0,0,1-3.83-10q.48-5.9,4.63-12.91a53.11,53.11,0,0,1,10.35-12.59,54.86,54.86,0,0,1,13.39-8.92q7.17-3.34,13.22-2.07,3.18.65,3.83-2.55.94-2.55-2.23-3.82a37,37,0,0,0-19.28,3.34,58.14,58.14,0,0,0-16.58,11.31A55.32,55.32,0,0,0,893.3,189q-4.14,8.61-3.5,15.93a16.89,16.89,0,0,0,7,12.27q6.36,5,20.07,4.94,8,0,18-6.21a106.92,106.92,0,0,0,19.28-15.46q3-2.82,5.46-5.39a16.39,16.39,0,0,0,.27,7.3,19.2,19.2,0,0,0,5.42,8.93,12,12,0,0,0,8.29,3.5q13.07,0,23.58-15.29l2.55-4.47a84.84,84.84,0,0,0,8.6-1.59q5.74-1.27,11.48-2.87c2.39-.66,4.57-1.35,6.58-2.05l-.53,2.37q-1.27,5.1-2.55,10c-.85,3.3-1.59,6.21-2.23,8.76s-1.49,5.32-2.55,8.29a3,3,0,0,0,2.23,3.82,1.27,1.27,0,0,0,1,.32,2.71,2.71,0,0,0,2.87-1.91q2.22-5.1,4.14-9.24t4.3-9.4c1.59-3.51,3.24-7.06,4.94-10.68q8.28-16.56,12.27-22.46a66.49,66.49,0,0,1,5.26-7.18,6.19,6.19,0,0,1,.79,2.87c.11,1.28.16,3.19.16,5.74a60.94,60.94,0,0,1,0,8.76q-.32,4.62-.63,9.09a169,169,0,0,0-.32,17.2c.21,3.19,1.16,5.21,2.87,6.06a6.3,6.3,0,0,0,1.91.48c.84.11,1.8-.37,2.87-1.44q2.22-1.91,4.94-8.6t6.85-18.49q2.55-6.69,5.1-13.86t5.09-12.9a85.74,85.74,0,0,1,4.94-8.93,29.84,29.84,0,0,1,2.39-3.18,6.69,6.69,0,0,1,.48,2.07,17.94,17.94,0,0,1-.16,4l-1.59,14.66q-1,7-1.75,14.82a146.73,146.73,0,0,0-.8,15.14,64.26,64.26,0,0,0,1.28,13.38,21.94,21.94,0,0,0,4.14,9.56c2.12,3.62,5,5.31,8.6,5.1a27,27,0,0,0,11.47-3.67,75.59,75.59,0,0,0,12.27-8.6,124.19,124.19,0,0,0,10.68-10,161.86,161.86,0,0,0,11.47-12q4.45-5.25,4.46-5.58Q1155.26,180.4,1152.7,178.47ZM991.77,196q-5.41,8.3-10.35,10.36a21.89,21.89,0,0,1-7.81,2.07,6.38,6.38,0,0,1-4.62-2.07,12.2,12.2,0,0,1-3-5.58Q964,193.13,972,188a24,24,0,0,0,5.42,4,22.35,22.35,0,0,0,7.65,2.39,32.42,32.42,0,0,0,3.51.48c1.27.1,2.55.15,3.82.15Zm4.15-7.33H991A20,20,0,0,1,986,188q-7.34-1.26-10.52-5.73v-.64c-1.07-1.27-1.59-3.4-1.59-6.37a15.42,15.42,0,0,1,5.1-9.88,27,27,0,0,1,5.09-3.19,17.79,17.79,0,0,1,8-1.59q7.65,0,7.65,11.15A41.53,41.53,0,0,1,995.92,188.67Zm37.6-3.19c0-.15.06-.3.1-.45a1.72,1.72,0,0,0,.54-1.14l.33-.33Z"/></g></g></g></svg>