<svg xmlns="http://www.w3.org/2000/svg" viewBox="0 0 710.56 348.82"><defs><style>.cls-1{fill:#fff;fill-rule:evenodd;}</style></defs><g id="レイヤー_2" data-name="レイヤー 2"><g id="name"><g id="Kubo_Niku.com" data-name="Kubo Niku.com"><g id="Kubo_Niku.com-2" data-name="Kubo Niku.com"><path class="" d="M97.62,49.37l-4.34,1.38a7.67,7.67,0,0,1-.57,2.62c-.39,1-1,2.37-1.83,4.12s-2.1,4-3.77,6.74q-3.21,5.26-7.77,11.54T69.28,88.91Q63.79,95.77,57.63,103T45.28,117q-7.77,8.46-13.94,14.4T20.6,141.25q1.14-5,2.63-10.29t3.31-11.2q4.13-15.3,8.23-29.71l7.31-25.59q3.21-11.2,5.15-18.06t1.94-7.08c.61-1.52.07-2.44-1.6-2.74-1.22-.46-2.14,0-2.74,1.37q0,.22-1.95,7.08T37.63,63.09q-3.32,11.19-7.32,25.59T22.2,118.39l-7.54,27.66a23.58,23.58,0,0,1-3.43,2.17c-1.07.53-2,.95-2.74,1.25a41.38,41.38,0,0,0-4.8.69,2.09,2.09,0,0,0-1.37,2.74c.3,1.07.83,1.64,1.6,1.72s1.29.11,1.6.11L8,154.27a1.57,1.57,0,0,0,.69-.11A1.5,1.5,0,0,1,9.4,154a10.06,10.06,0,0,0,1.49-.11,11.52,11.52,0,0,1,1.71-.11Q-.65,204.1,0,211.41a2,2,0,0,0,2.29,2.28,2.42,2.42,0,0,0,2.28-2.51c0-.61.12-1.94.35-4s.8-5.26,1.71-9.6,2.21-10.06,3.89-17.14,3.88-16,6.62-26.62c2.14.15,4.42.34,6.86.57a57.23,57.23,0,0,1,7.54,1.25,57.25,57.25,0,0,1,20.8,8.92,56.51,56.51,0,0,1,18.28,19.65,2.23,2.23,0,0,0,2.06,1.14,2.58,2.58,0,0,0,1.14-.22,2.16,2.16,0,0,0,.69-3.2,59.73,59.73,0,0,0-8.69-12,63.72,63.72,0,0,0-11.2-9.49A66.57,66.57,0,0,0,32,151.07q-3.88-.67-7.2-1.14c-2.21-.3-4.31-.53-6.28-.69v-.45q3.64-2.74,7.88-6.4t8.23-7.66q4-4,7.77-7.88t6.74-7.32q6.39-7.08,12.68-14.39t11.77-14.4q5.49-7.08,10.06-13.48T91.45,65.6q5-8,5.83-11.31A10.61,10.61,0,0,0,97.62,49.37ZM221.71,3.89C220.34,1.31,218.36,0,215.77,0q-4.34-.23-8.91,4.68T197,20.12a227.16,227.16,0,0,0-9.48,20.8q-4.7,11.65-8.91,24.34t-8.12,25.48q-3.89,12.8-6.85,24c-1.08,4.36-2.1,8.61-3.08,12.72a1.85,1.85,0,0,0-1.27.76,36,36,0,0,1-3.2,4,110.9,110.9,0,0,1-8,8.34A75.08,75.08,0,0,1,137,150.27a32.94,32.94,0,0,1-9,4.69.83.83,0,0,1-1.14-.69,9.08,9.08,0,0,1-.23-2.17,9.5,9.5,0,0,1,.35-2.51,8.56,8.56,0,0,0,.34-1.72,60.76,60.76,0,0,1,1.83-6.62q1.14-3.44,2.28-6.63c.46-1.68.92-3.2,1.37-4.57s.84-2.67,1.15-3.89a14.47,14.47,0,0,0,.57-3.65,2.69,2.69,0,0,0-1.94-3,3.15,3.15,0,0,0-3.43.8,35.3,35.3,0,0,0-3.43,3.78l-7.31,10.28q-2.52,3.88-5,7.54c-1.68,2.44-3.35,4.73-5,6.86-2.44,3.05-4.11,4.84-5,5.37a6.81,6.81,0,0,1-1.6.8q-3.89,0-5.25-4.12a22.73,22.73,0,0,1-.35-7.08,38.55,38.55,0,0,1,2-9.14,38.06,38.06,0,0,1,2.85-7.54,11.07,11.07,0,0,1,2.17-3.2,2.11,2.11,0,0,0,1.6-2.75,2.05,2.05,0,0,0-2.74-1.82q-2.28.68-4.34,4.11l-3.2,7.31a66,66,0,0,0-2.06,7.66,34,34,0,0,0-.68,10.4,13.91,13.91,0,0,0,1.37,5.6,9.72,9.72,0,0,0,2.63,3.31,7.71,7.71,0,0,0,3.08,1.49,14.87,14.87,0,0,0,3,.34q3.88,0,8.57-5.94t12-16.69c2.29-3.5,4.49-6.7,6.63-9.59l-1.83,5.94A142.37,142.37,0,0,0,122.64,149q-1.26,6.16,1.26,9.14,1.83,1.83,5.49,1.14,9.13-2.51,21.94-15.54,4.24-4,7.18-7.37c-.22,1-.45,2-.67,2.91q-2.62,11.55-4,20.69-1.14,7.77-1.49,12.45a48.63,48.63,0,0,0-.11,7.2,12,12,0,0,0,.69,3.54,4.87,4.87,0,0,0,.91,1.49,2.16,2.16,0,0,0,1.83.91h.45a1.84,1.84,0,0,0,1.6-1.83q1.6-5.7,2.86-10.28c.84-3.05,1.87-6.43,3.09-10.17s2.66-7.58,4.34-11.54a103.33,103.33,0,0,1,7.88-15.08A45.38,45.38,0,0,1,183,128a16,16,0,0,1,6.28-3.77,14.91,14.91,0,0,1,5.26-.57q5,.91,6.4,4.57a13.26,13.26,0,0,1,.11,5.83,29.45,29.45,0,0,1-2.63,7.88,68.19,68.19,0,0,1-4.57,8.11,86.16,86.16,0,0,1-5.94,8.12q-4.8,5.72-7.88,7.54c-2.06,1.22-3.32,1.75-3.77,1.6-.61,0-1-.46-1.15-1.37a13.23,13.23,0,0,1,.46-5.72,50.35,50.35,0,0,1,3-8.22,44,44,0,0,1,4-7.32,38.79,38.79,0,0,1,2.4-3.2,2,2,0,0,0,1.14-3,2.08,2.08,0,0,0-3.2-.91,10.28,10.28,0,0,0-2.51,2.4,30.69,30.69,0,0,0-2.51,3.66c-.77,1.29-1.45,2.51-2.06,3.65s-1,1.87-1.14,2.17c-.92,2.14-1.95,4.84-3.09,8.12a17.63,17.63,0,0,0-1,8.8c.31,2.13,1,3.54,2.06,4.22a8.24,8.24,0,0,0,2.74,1.26,5.89,5.89,0,0,0,4-.57,23.12,23.12,0,0,0,4.34-2.74,49.25,49.25,0,0,0,4.23-3.77c1.37-1.38,2.52-2.59,3.43-3.66q2.51-3,5.6-7.31a61.73,61.73,0,0,0,5.37-9.15,40,40,0,0,0,3.2-9.48,16,16,0,0,0-.46-8.57,8.64,8.64,0,0,0-4.11-5.49,18.59,18.59,0,0,0-5.72-2q-10-1.38-18.51,8.68-7.08,8.24-12.8,22.17-2.05,4.8-3.77,9.48t-2.85,8.8l1.14-7.54q1.14-7.54,3.2-17t4.57-20a4.39,4.39,0,0,0,3.89-1.26,36.36,36.36,0,0,0,5.25-6,121.42,121.42,0,0,0,7.43-10.75q4-6.39,8.23-14t8.45-16.23q4.23-8.57,8.12-17.25,4.11-9.37,7.31-17.48a148.13,148.13,0,0,0,5-14.75Q224.45,10.31,221.71,3.89Zm-8.34,28a344.22,344.22,0,0,1-16.79,39Q192,80.24,187.21,88.8t-9.15,15.42a116.45,116.45,0,0,1-7,10.29q-2.4,3-3.54,4.11l.69-2.74q3-11.19,6.62-23.88t8-25.14q4.35-12.47,8.92-24.11a188,188,0,0,1,9.37-20.57,87.87,87.87,0,0,1,8-12.91q3.65-4.69,6.17-4.69h.22A2.74,2.74,0,0,1,216.8,5q.8.45,1.26,3Q219.2,15.09,213.37,31.89ZM275.19,128a2.21,2.21,0,0,0-3.2.23l-.23.23a1.9,1.9,0,0,0-.34.45,1.76,1.76,0,0,1-.34.46,61.48,61.48,0,0,1-6.4,2.74,52,52,0,0,1-12.34,3,42,42,0,0,0,1.71-6.18,30.19,30.19,0,0,0,.57-5.71q0-12.1-10.05-12.57a16.81,16.81,0,0,0-7.54,1.49,23,23,0,0,0-4.8,3.08A15.74,15.74,0,0,0,227,125.48a17.89,17.89,0,0,0,.23,2.63,11.48,11.48,0,0,0,.69,2.62,30.55,30.55,0,0,0-3.32,2.86,9.36,9.36,0,0,0-2.17,3.31,10.82,10.82,0,0,0-.91,8.23,13.67,13.67,0,0,0,3.88,6.4,8.63,8.63,0,0,0,5.94,2.51q9.38,0,16.92-11l1.82-3.2a62.66,62.66,0,0,0,6.17-1.14c2.75-.6,5.49-1.29,8.23-2a70.38,70.38,0,0,0,7.2-2.4q3.09-1.26,3.09-2.4l.45-.46a.21.21,0,0,1,.23-.23Q277,129.36,275.19,128Zm-30.85,12.57q-3.89,5.94-7.43,7.43a15.63,15.63,0,0,1-5.6,1.48A4.57,4.57,0,0,1,228,148a8.8,8.8,0,0,1-2.17-4q-1.38-5.49,4.34-9.14a16.79,16.79,0,0,0,3.89,2.85,16.06,16.06,0,0,0,5.48,1.72,21.5,21.5,0,0,0,2.51.34c.92.08,1.83.11,2.75.11Zm3-5.26h-3.54a14.75,14.75,0,0,1-3.54-.45c-3.51-.61-6-2-7.55-4.12v-.45c-.76-.92-1.14-2.44-1.14-4.57a11.09,11.09,0,0,1,3.66-7.09,18.81,18.81,0,0,1,3.66-2.28,12.57,12.57,0,0,1,5.71-1.15q5.49,0,5.48,8A29.6,29.6,0,0,1,247.31,135.3Z"/></g><g id="Kubo_Niku.com-3" data-name="Kubo Niku.com"><path class="" d="M276.51,296.49q.23-15.09,2.06-31T282.22,235q3-21.94,4-36.79t-3.54-20.12a6.74,6.74,0,0,0-5.48-2.51q-8.93,0-21.72,21.25-4.8,8-10.17,19.09T234,241.18q-4.58,11.43-8.8,22.4t-7.42,19.88q1.14-7.77,2.17-16.68t2.17-18.29q1.37-13,2.17-23.19t1-17.94q.23-4.58.23-8.23a39.89,39.89,0,0,0-.46-6.4c-.46-4.42-1.68-7.08-3.66-8-1.22-.76-2.21-.46-3,.92a2.32,2.32,0,0,0,.92,3A4.2,4.2,0,0,1,220,190a37.4,37.4,0,0,1,.8,4.8,113.2,113.2,0,0,1,0,14.4q-.47,7.53-1.15,17.71t-2.28,22.74q-1.15,10.74-2.4,20.79t-2.4,17.94q-1.14,7.89-1.83,12.69c-.46,3.2-.68,4.88-.68,5-.31,1.37.3,2.21,1.82,2.51a2.12,2.12,0,0,0,2.75-1.6q3.64-11.19,6.85-20.23T229,266.32q4.35-11.43,9.37-23.31,11.88-28.33,21-43.88a107.56,107.56,0,0,1,6.51-9.94,36.53,36.53,0,0,1,5.14-5.71,17.57,17.57,0,0,1,3.78-2.63,6,6,0,0,1,2.4-.69,2.39,2.39,0,0,1,2.05.92q3,3.19,2.29,18.28-.46,7.32-1.49,16.22t-2.4,18.74q-2.06,14.87-3.77,31.09t-1.94,31.42a149.22,149.22,0,0,0,2.17,28.57q2.4,13.37,8.57,22.51a2.19,2.19,0,0,0,1.83.91,1.85,1.85,0,0,0,1.37-.46c1.06-.76,1.22-1.82.46-3.19Q276.27,330.3,276.51,296.49Zm43.76-61.94a6.54,6.54,0,0,0,4.77-1.94,6.53,6.53,0,0,0,0-9.37,6.58,6.58,0,0,0-4.77-1.94,6.28,6.28,0,0,0-4.53,1.94,6.53,6.53,0,0,0,0,9.37A6.24,6.24,0,0,0,320.27,234.55Zm-.11-8.68a2.06,2.06,0,1,1,0,4.11c-1.22,0-1.83-.68-1.83-2S318.94,225.87,320.16,225.87Zm180.77,29.94a2,2,0,0,0-1.71-.57,1.91,1.91,0,0,0-1.49.8,36,36,0,0,1-3.2,4,112.94,112.94,0,0,1-8,8.34,75.08,75.08,0,0,1-11.09,9.71,33.15,33.15,0,0,1-9,4.68.82.82,0,0,1-1.14-.68,9.14,9.14,0,0,1-.23-2.17,9.51,9.51,0,0,1,.35-2.52,8.38,8.38,0,0,0,.34-1.71,61.54,61.54,0,0,1,1.83-6.63q1.14-3.42,2.28-6.63c.46-1.67.92-3.19,1.37-4.57s.84-2.66,1.15-3.88a14.56,14.56,0,0,0,.57-3.66,2.68,2.68,0,0,0-1.95-3,3.11,3.11,0,0,0-3.42.8,35.1,35.1,0,0,0-3.43,3.77l-7.31,10.29q-2.52,3.89-5,7.54t-5,6.85c-2.44,3-4.11,4.84-5,5.37a6.38,6.38,0,0,1-1.6.8q-3.88,0-5.25-4.11a22.47,22.47,0,0,1-.35-7.08,38.53,38.53,0,0,1,1.95-9.15,38.56,38.56,0,0,1,2.85-7.54,11.23,11.23,0,0,1,2.17-3.2,2.11,2.11,0,0,0,1.6-2.74,2.06,2.06,0,0,0-2.74-1.83q-2.28.69-4.34,4.12l-1.94,4.43a1.76,1.76,0,0,0-.35.37,36,36,0,0,1-3.2,4,111.23,111.23,0,0,1-8,8.34,83,83,0,0,1-11.76,10.74,29.36,29.36,0,0,1-9.72,4.8,19.32,19.32,0,0,1-8.11.57,43.41,43.41,0,0,1-8.23-1.94,39.41,39.41,0,0,1-7.43-3.43A22.35,22.35,0,0,1,372,275a6.71,6.71,0,0,1-1.83-3.42q8-.46,13.14-4a50.87,50.87,0,0,0,8.34-7,36,36,0,0,0,5.14-8.23,18,18,0,0,0,1.95-6.63,2.86,2.86,0,0,0-.8-2.28,2.61,2.61,0,0,0-1.72-.69q-9.13,0-27.88,22.4-4.11,5-7.54,9.71t-5.71,7.88q-.47-4.11.91-13.48.91-5.25,2.17-11.43t3.09-13.25a15.64,15.64,0,0,0,3.54-2.86,84.85,84.85,0,0,0,5.83-6.74q3.42-4.8,7.54-11.08t8.34-13.49q4.23-7.2,8.34-15t7.77-15.31q4.11-8.22,7.09-15.54t4.8-13.25q4.56-14.18,1.82-19.66a6.15,6.15,0,0,0-5.94-3.88q-4.8-.22-10.74,6.62-4.8,5-10.51,16.23-3.66,7.08-7.54,16.23T374,186.56q-3.76,10.51-7.43,21.94t-6.62,23.08q-3,10.75-5,20.11c-.28,1.27-.54,2.5-.8,3.72a1.68,1.68,0,0,0-.8.63,37.54,37.54,0,0,1-3.2,4,113.28,113.28,0,0,1-8,8.34A66.25,66.25,0,0,1,329,278.66a40.79,40.79,0,0,1-15.43,5.26c-3.5.3-5.86-.38-7.08-2.06a9.2,9.2,0,0,1-.92-3.77q-.22-2.62,1.37-7.88a64.18,64.18,0,0,1,3-8c1.21-2.75,2.36-5.18,3.42-7.32.61-1.37,1.15-2.59,1.6-3.65s.84-2,1.15-2.75a2.29,2.29,0,0,0-1.6-3c-1.53-.3-2.44.23-2.75,1.6L309,253.06q-1.6,3.66-3.54,8a56.18,56.18,0,0,0-3.09,8.69,36.33,36.33,0,0,0-1.25,8.23,11,11,0,0,0,1.71,6.62q2.74,3.9,9.14,3.89H314a36.31,36.31,0,0,0,17.37-5.37,78,78,0,0,0,13.94-11.54q4.18-4,7.1-7.28c-.26,1.48-.49,2.92-.7,4.31q-.92,5.72-1.14,9.48a39.23,39.23,0,0,0,0,6.17,13.41,13.41,0,0,0,.68,3.54,9.37,9.37,0,0,0,.92,1.83,2.59,2.59,0,0,0,1.82.91,1.84,1.84,0,0,0,1.83-.91c.15-.15,1.22-1.63,3.2-4.46s4.49-6.2,7.54-10.17a9.94,9.94,0,0,0,2.06,3.2q5,5.26,15.77,8.23a42.14,42.14,0,0,0,12.91,1.83,29,29,0,0,0,10.4-2.29,33.25,33.25,0,0,0,9-5.82q4.21-3.78,9-8.57c1.84-1.76,3.48-3.4,4.95-4.95a33.71,33.71,0,0,0-.6,10,13.82,13.82,0,0,0,1.37,5.6,9.77,9.77,0,0,0,2.63,3.32,7.68,7.68,0,0,0,3.08,1.48,14.23,14.23,0,0,0,3,.35q3.89,0,8.57-6t12-16.68c2.29-3.5,4.49-6.7,6.63-9.6l-1.83,5.94a140.79,140.79,0,0,0-4.46,15.77q-1.26,6.18,1.26,9.14c1.22,1.23,3.05,1.6,5.49,1.15q9.13-2.52,21.93-15.54A116.29,116.29,0,0,0,498,263a37.54,37.54,0,0,0,3.2-4Q502.77,257.18,500.93,255.81Zm-123.29,5.6c1.75-1.91,3.54-3.77,5.37-5.6a54.8,54.8,0,0,1,5.6-4.92,22.84,22.84,0,0,1,5.14-3.08,33.32,33.32,0,0,1-2.29,5,25.73,25.73,0,0,1-4.57,5.94,25.17,25.17,0,0,1-13.71,7.77C374.4,265,375.88,263.31,377.64,261.41Zm-13.37-28.69q3-11.41,6.63-22.73t7.42-21.72q3.78-10.4,7.54-19.42t7.43-16.11a119.09,119.09,0,0,1,6.4-10.86,52.94,52.94,0,0,1,4.8-6.17A10.73,10.73,0,0,1,408,133a7,7,0,0,1,2.17-.57,3.8,3.8,0,0,1,1.49.34c.53.23.87,1.18,1,2.86a27,27,0,0,1-.92,9.25,103.27,103.27,0,0,1-4.34,13.49q-3,7.65-7.31,17T390.09,195q-4.8,8.68-9.6,16.79t-9.37,14.74c-1.82,2.6-3.39,4.73-4.68,6.4s-2.4,3.05-3.31,4.12A20.41,20.41,0,0,1,364.27,232.72Zm141,52.8a6.59,6.59,0,0,0-4.69,1.83,6,6,0,0,0-1.94,4.57,6.63,6.63,0,0,0,13.25,0,6,6,0,0,0-1.94-4.57A6.6,6.6,0,0,0,505.28,285.52Zm0,8.45a1.81,1.81,0,0,1-2.06-2.05c0-1.22.68-1.83,2.06-1.83s2.05.61,2.05,1.83A1.81,1.81,0,0,1,505.28,294Zm204.31-38.16a2,2,0,0,0-1.72-.57,1.89,1.89,0,0,0-1.48.8,37.54,37.54,0,0,1-3.2,4,113.28,113.28,0,0,1-8,8.34q-1.83,1.83-4.91,4.8a57.43,57.43,0,0,1-6.63,5.48,24,24,0,0,1-7,3.54A5.35,5.35,0,0,1,671,281c-1.06-1.22-1.79-3.2-2.17-5.95a55.89,55.89,0,0,1-.45-9q.1-4.92.57-10.06t1.14-9.25c.76-5.34,1.22-9.52,1.37-12.57s-.38-5.18-1.6-6.4a3.25,3.25,0,0,0-2.51-1.37q-4.57-.69-9.83,10.74-2.06,4.58-4.11,9.94t-3.89,10.63l-5,13.48q0-1.83.12-4.11c.07-1.53.11-2.9.11-4.12q.47-9.6.35-15.31t-1.95-7.77a3.73,3.73,0,0,0-2.74-1.14q-3.2,0-8.45,7.77-1.6,2.75-3.55,6.28-1.12,2.06-2.36,4.46a2.1,2.1,0,0,0-.82-1.26l.21-1q.57-2.74,1-5a30.33,30.33,0,0,0,.69-7.2,6,6,0,0,0-.92-2.86,2.46,2.46,0,0,0-2.28-1.14A2,2,0,0,0,621.6,241c0,.92.3,1.45.92,1.6,0,.77-.2,2.63-.58,5.6-.25,2-.83,5.13-1.73,9.4-1.07.51-3,1.3-5.69,2.37a52.55,52.55,0,0,1-12.34,3,41.92,41.92,0,0,0,1.71-6.17,30.27,30.27,0,0,0,.57-5.71q0-12.12-10.06-12.57a16.85,16.85,0,0,0-7.54,1.48,23,23,0,0,0-4.8,3.09A12.79,12.79,0,0,0,577,255.23h-.26a1.89,1.89,0,0,0-1.48.8,37.54,37.54,0,0,1-3.2,4,113.28,113.28,0,0,1-8,8.34,71.89,71.89,0,0,1-11.88,10.05q-6.18,4.11-11.89,4.12-8,0-11.08-3a8.61,8.61,0,0,1-2.75-7.2,22.09,22.09,0,0,1,3.32-9.26,38.32,38.32,0,0,1,7.43-9,39.36,39.36,0,0,1,9.59-6.4,15,15,0,0,1,9.49-1.48,2.06,2.06,0,0,0,2.74-1.83c.46-1.22-.08-2.13-1.6-2.74a26.47,26.47,0,0,0-13.82,2.4,41.49,41.49,0,0,0-11.89,8.11,39.64,39.64,0,0,0-8.11,11.2A22.07,22.07,0,0,0,521,274.78a12.16,12.16,0,0,0,5,8.79q4.57,3.56,14.4,3.55,5.71,0,12.91-4.46a76.66,76.66,0,0,0,13.83-11.08c1.42-1.36,2.72-2.64,3.91-3.87a11.87,11.87,0,0,0,.2,5.24,13.73,13.73,0,0,0,3.89,6.4,8.65,8.65,0,0,0,5.94,2.51q9.38,0,16.91-11l1.83-3.2a62.66,62.66,0,0,0,6.17-1.14c2.74-.61,5.49-1.29,8.23-2.06,1.71-.47,3.28-1,4.72-1.47-.12.55-.25,1.12-.38,1.7q-.92,3.66-1.83,7.2c-.61,2.36-1.14,4.46-1.6,6.28s-1.07,3.81-1.83,5.95a2.12,2.12,0,0,0,1.6,2.74.94.94,0,0,0,.69.23,2,2,0,0,0,2.06-1.37q1.59-3.66,3-6.63t3.08-6.74q1.71-3.78,3.54-7.66a167.68,167.68,0,0,1,8.8-16.11,47.68,47.68,0,0,1,3.77-5.14,4.36,4.36,0,0,1,.58,2.05c.07.92.11,2.29.11,4.12a43.84,43.84,0,0,1,0,6.28c-.15,2.21-.31,4.38-.46,6.51q-.45,8.93-.23,12.35t2.06,4.34a4.29,4.29,0,0,0,1.37.34,2.63,2.63,0,0,0,2.06-1q1.59-1.37,3.54-6.17T653.82,259q1.83-4.8,3.66-9.94t3.66-9.26a59,59,0,0,1,3.54-6.4,20.83,20.83,0,0,1,1.71-2.28,4.76,4.76,0,0,1,.35,1.48,13.59,13.59,0,0,1-.12,2.86L665.48,246c-.46,3.35-.88,6.9-1.26,10.63a107.14,107.14,0,0,0-.57,10.85,46.56,46.56,0,0,0,.92,9.6,15.76,15.76,0,0,0,3,6.86c1.52,2.59,3.57,3.81,6.17,3.65a19.39,19.39,0,0,0,8.22-2.62,54.66,54.66,0,0,0,8.8-6.17,93.39,93.39,0,0,0,7.66-7.2,118.42,118.42,0,0,0,8.23-8.57,37.54,37.54,0,0,0,3.2-4C710.88,257.79,710.81,256.72,709.59,255.81ZM594.18,268.38q-3.9,5.94-7.43,7.42a15.53,15.53,0,0,1-5.6,1.49,4.55,4.55,0,0,1-3.31-1.49,8.67,8.67,0,0,1-2.18-4q-1.36-5.48,4.35-9.14a17,17,0,0,0,3.88,2.86,15.83,15.83,0,0,0,5.49,1.71,21.4,21.4,0,0,0,2.51.35c.92.08,1.83.11,2.74.11Zm3-5.26H593.6a14.34,14.34,0,0,1-3.54-.46c-3.5-.6-6-2-7.54-4.11v-.46c-.76-.91-1.14-2.43-1.14-4.57a11.08,11.08,0,0,1,3.65-7.08,20,20,0,0,1,3.66-2.29A12.73,12.73,0,0,1,594.4,243q5.49,0,5.49,8A29.63,29.63,0,0,1,597.15,263.12Zm27-2.28c0-.11,0-.22.07-.33a1.22,1.22,0,0,0,.39-.82l.24-.24Z"/></g></g></g></g></svg>